<?xml version="1.0" encoding="UTF-8"?>
<svg version="1.1" xmlns="http://www.w3.org/2000/svg" width="960" height="286">
<path d="M0 0 C1.10817581 -0.00637985 2.21635162 -0.0127597 3.35810852 -0.01933289 C5.16894173 -0.02100212 5.16894173 -0.02100212 7.01635742 -0.02270508 C8.86447273 -0.02769768 8.86447273 -0.02769768 10.74992371 -0.03279114 C13.3635521 -0.03786639 15.977187 -0.04019928 18.59082031 -0.04003906 C21.272855 -0.03995776 23.95471907 -0.04690031 26.63671875 -0.06054688 C30.4924851 -0.07883416 34.34805207 -0.0837744 38.20385742 -0.08520508 C39.40500687 -0.09239059 40.60615631 -0.09957611 41.84370422 -0.10697937 C42.96133652 -0.10390274 44.07896881 -0.10082611 45.23046875 -0.09765625 C46.21340408 -0.09908127 47.19633942 -0.10050629 48.20906067 -0.10197449 C50.93401804 0.15711961 52.5480636 0.61618983 54.80932617 2.14526367 C55.89916992 4.99121094 55.89916992 4.99121094 56.74682617 8.64916992 C57.0786896 10.01817942 57.41208811 11.38681749 57.74682617 12.75512695 C58.00399414 13.83422333 58.00399414 13.83422333 58.26635742 14.93511963 C59.17214022 18.62209142 60.21340525 22.26976265 61.24682617 25.92260742 C61.67166957 27.44138579 62.09614537 28.96026704 62.52026367 30.47924805 C63.16420923 32.78020526 63.80882235 35.08096961 64.45483398 37.38134766 C66.96277729 46.31803637 69.40305739 55.25702797 71.55371094 64.2875824 C72.13573548 67.48707547 72.13573548 67.48707547 73.80932617 70.14526367 C75.08597997 65.48311315 76.35835478 60.81981931 77.62667847 56.15539551 C78.0808422 54.48541137 78.53553163 52.81557012 78.99075317 51.14587402 C81.48443998 41.98848896 83.9250083 32.82537189 86.14916992 23.59838867 C86.41940475 22.48379272 86.41940475 22.48379272 86.69509888 21.34667969 C87.54991227 17.81390197 88.38975346 14.27853876 89.20776367 10.73706055 C89.50811523 9.48473633 89.8084668 8.23241211 90.11791992 6.94213867 C90.37371826 5.84224609 90.6295166 4.74235352 90.89306641 3.60913086 C91.19543213 2.79605469 91.49779785 1.98297852 91.80932617 1.14526367 C94.88770412 0.11913769 96.97506913 0.02436148 100.19873047 0.03173828 C101.29964523 0.03181381 102.40056 0.03188934 103.53483582 0.03196716 C104.72240982 0.03712845 105.90998383 0.04228973 107.13354492 0.04760742 C108.95835136 0.04972984 108.95835136 0.04972984 110.82002258 0.05189514 C114.71231527 0.05750055 118.60455081 0.07005401 122.49682617 0.08276367 C125.13289305 0.08777797 127.76896083 0.092341 130.4050293 0.09643555 C136.87314781 0.10747174 143.34123291 0.12421518 149.80932617 0.14526367 C151.36135768 3.60041008 152.05902714 6.29450841 152.05656433 10.07632446 C152.06075882 11.0433429 152.06495331 12.01036133 152.0692749 13.00668335 C152.0636554 14.05611115 152.05803589 15.10553894 152.05224609 16.18676758 C152.05414444 17.30124268 152.05604279 18.41571777 152.05799866 19.56396484 C152.06170429 23.24999011 152.05100073 26.93581838 152.03979492 30.62182617 C152.03860234 33.18907651 152.03815012 35.75632728 152.03840637 38.32357788 C152.03684159 43.70866827 152.02879981 49.09368781 152.01513672 54.47875977 C151.99945981 60.67992219 151.99413705 66.88102269 151.99487227 73.08220351 C151.99548596 79.06921006 151.99023728 85.05619168 151.98208046 91.04319382 C151.97891015 93.57957209 151.97693023 96.11595216 151.97618675 98.65233231 C151.97400282 102.21071636 151.96521322 105.76902493 151.95458984 109.32739258 C151.95504303 110.36467499 151.95549622 111.4019574 151.95596313 112.47067261 C151.95169815 113.45460999 151.94743317 114.43854736 151.94303894 115.45230103 C151.9413631 116.2910911 151.93968725 117.12988117 151.93796062 117.99408913 C151.74495435 122.72218827 151.23774466 127.4326603 150.80932617 132.14526367 C136.61932617 132.14526367 122.42932617 132.14526367 107.80932617 132.14526367 C107.80932617 108.71526367 107.80932617 85.28526367 107.80932617 61.14526367 C102.84837127 79.1287252 97.91067289 97.11086758 93.14501953 115.14575195 C92.44365703 117.79743359 91.73815608 120.44798494 91.03198242 123.09838867 C90.82162857 123.89907776 90.61127472 124.69976685 90.39454651 125.52471924 C88.9228329 131.03175695 88.9228329 131.03175695 87.80932617 132.14526367 C85.28838541 132.2337411 82.79501724 132.26053669 80.27416992 132.24291992 C79.14429405 132.2407975 79.14429405 132.2407975 77.99159241 132.2386322 C75.57663057 132.23301743 73.16176016 132.2204625 70.74682617 132.20776367 C69.11336397 132.20275057 67.47990031 132.19818734 65.84643555 132.1940918 C61.83403032 132.18304321 57.82169377 132.16576873 53.80932617 132.14526367 C51.8543145 127.76958148 50.25377953 123.57040724 49.04760742 118.91870117 C48.73710449 117.73526123 48.42660156 116.55182129 48.10668945 115.33251953 C47.61918213 113.44545288 47.61918213 113.44545288 47.12182617 111.52026367 C46.41997696 108.841199 45.71400941 106.16322202 45.00854492 103.48510742 C44.82900269 102.80144608 44.64946045 102.11778473 44.46447754 101.41340637 C42.50377501 93.9562644 40.47761814 86.51764284 38.43432617 79.08276367 C37.93412964 77.2475415 37.93412964 77.2475415 37.42382812 75.37524414 C37.11018311 74.23587402 36.79653809 73.09650391 36.47338867 71.92260742 C36.19962402 70.92479248 35.92585938 69.92697754 35.64379883 68.89892578 C34.83815418 66.24039274 33.8821286 63.70625061 32.80932617 61.14526367 C33.05271729 62.93383789 33.05271729 62.93383789 33.30102539 64.75854492 C34.02072497 71.27535717 33.95245791 77.78348451 33.94213867 84.33276367 C33.94281351 85.68514015 33.94378503 87.03751651 33.94503784 88.38989258 C33.94650234 91.20370658 33.94439803 94.01748858 33.93969727 96.83129883 C33.93395654 100.44395952 33.93731401 104.05654662 33.94326973 107.66920471 C33.9468718 110.45205243 33.94573916 113.23488248 33.94314194 116.01773071 C33.94214918 117.99928841 33.94518937 119.98084679 33.94827271 121.96240234 C33.94354446 123.75061401 33.94354446 123.75061401 33.9387207 125.57495117 C33.93792511 126.62924316 33.93712952 127.68353516 33.93630981 128.76977539 C33.80932617 131.14526367 33.80932617 131.14526367 32.80932617 132.14526367 C29.92498797 132.23391575 27.06470459 132.26047663 24.18041992 132.24291992 C22.88407372 132.2407975 22.88407372 132.2407975 21.5615387 132.2386322 C18.78993325 132.23301606 16.01840737 132.22046086 13.24682617 132.20776367 C11.37247838 132.20275075 9.49812932 132.19818748 7.6237793 132.1940918 C3.01893074 132.18304139 -1.58585804 132.16576597 -6.19067383 132.14526367 C-6.21400245 115.08225781 -6.23165282 98.0192569 -6.242486 80.95623875 C-6.24764904 73.03413422 -6.25469187 65.11203959 -6.26611328 57.18994141 C-6.27605989 50.2875173 -6.2825272 43.38510036 -6.28476232 36.48266929 C-6.28606947 32.82565706 -6.28915557 29.16866531 -6.29640388 25.51165962 C-6.3044173 21.43582361 -6.30466498 17.36002354 -6.30419922 13.28417969 C-6.30779449 12.06282822 -6.31138977 10.84147675 -6.31509399 9.58311462 C-6.31371933 8.47948578 -6.31234467 7.37585693 -6.31092834 6.23878479 C-6.31185014 5.27366754 -6.31277193 4.30855028 -6.31372166 3.31418705 C-6.07573699 -0.88068998 -3.63949994 0.01414824 0 0 Z M108.80932617 54.14526367 C109.80932617 56.14526367 109.80932617 56.14526367 109.80932617 56.14526367 Z " fill="#DFF7FE" transform="translate(8.190673828125,-0.145263671875)"/>
<path d="M0 0 C1.04374031 0.00607269 1.04374031 0.00607269 2.10856628 0.01226807 C2.8263475 0.01035461 3.54412872 0.00844116 4.28366089 0.00646973 C5.80431976 0.00510769 7.32499025 0.00880543 8.84562683 0.01715088 C11.16336046 0.02780379 13.48031071 0.01728103 15.79801941 0.00445557 C17.27653674 0.00577808 18.75505358 0.00834236 20.23356628 0.01226807 C21.26819756 0.00619537 21.26819756 0.00619537 22.32373047 0 C27.59582173 0.05083256 31.17286112 0.80985077 35.18278503 4.27789307 C36.87028503 6.27789307 36.87028503 6.27789307 36.87028503 8.27789307 C37.53028503 8.27789307 38.19028503 8.27789307 38.87028503 8.27789307 C40.3698142 10.12505374 41.79549591 12.0325146 43.18278503 13.96539307 C46.16588447 18.11337004 49.22834361 21.70237002 52.87028503 25.27789307 C54.85376094 27.46858259 56.77125842 29.71188439 58.68278503 31.96539307 C59.18487488 32.54611572 59.68696472 33.12683838 60.20426941 33.72515869 C63.87028503 38.03958524 63.87028503 38.03958524 63.87028503 40.27789307 C64.53028503 40.27789307 65.19028503 40.27789307 65.87028503 40.27789307 C67.24528503 41.60601807 67.24528503 41.60601807 68.87028503 43.52789307 C69.48258972 44.24590088 70.09489441 44.96390869 70.72575378 45.70367432 C72.31690747 47.6136384 73.90253227 49.52755589 75.48356628 51.44586182 C75.93022644 51.98630127 76.3768866 52.52674072 76.83708191 53.08355713 C77.72628361 54.16182712 78.61177955 55.24316501 79.49333191 56.32769775 C81.82146376 59.22865546 81.82146376 59.22865546 84.87028503 61.27789307 C84.70874939 60.18694336 84.54721375 59.09599365 84.38078308 57.97198486 C83.72614141 52.70561673 83.70825707 47.47335247 83.70231628 42.17242432 C83.69732368 40.609076 83.69732368 40.609076 83.69223022 39.0141449 C83.68719148 36.82317544 83.68482095 34.63219839 83.6849823 32.44122314 C83.68278506 29.09042864 83.66456756 25.73995804 83.64567566 22.38922119 C83.64274325 20.25445669 83.64075743 18.11969063 83.63981628 15.98492432 C83.63263077 14.98588577 83.62544525 13.98684723 83.61804199 12.95753479 C83.6461761 4.40932555 83.6461761 4.40932555 85.87028503 0.27789307 C91.26375491 0.25324457 96.65719229 0.23505776 102.05070496 0.22296143 C103.88697378 0.21792075 105.72323858 0.2110883 107.55949402 0.20245361 C110.19304905 0.19037634 112.8265512 0.18466226 115.46012878 0.18023682 C116.28617111 0.17507553 117.11221344 0.16991425 117.96328735 0.16459656 C119.93264871 0.16440102 121.90190117 0.21585155 123.87028503 0.27789307 C124.87028503 1.27789307 124.87028503 1.27789307 124.99333286 3.44681644 C124.99241107 4.4119337 124.99148928 5.37705095 124.99053955 6.37141418 C124.99260155 8.02685745 124.99260155 8.02685745 124.9947052 9.71574402 C124.99110992 10.93709549 124.98751465 12.15844696 124.98381042 13.41680908 C124.98395645 14.69467285 124.98410248 15.97253662 124.98425293 17.28912354 C124.98454089 20.80342897 124.97864444 24.31770057 124.97167897 27.83199811 C124.96544515 31.50088662 124.96484161 35.16977583 124.96365356 38.83866882 C124.96054033 45.79079742 124.95232705 52.74291037 124.94230407 59.69503206 C124.93114269 67.60784087 124.92563242 75.52065041 124.92060864 83.43346512 C124.91014443 99.71495028 124.89254514 115.99641968 124.87028503 132.27789307 C119.53648212 132.62748689 114.20949646 132.87947049 108.86686707 133.04693604 C107.05611471 133.11679084 105.24613635 133.21193351 103.43815613 133.33404541 C88.86577839 134.29264848 88.86577839 134.29264848 83.83195496 130.90692139 C79.1057741 126.60436283 74.90430376 121.37994924 72.87028503 115.27789307 C72.21028503 115.27789307 71.55028503 115.27789307 70.87028503 115.27789307 C69.53756624 113.81098748 68.28114634 112.27466806 67.05778503 110.71539307 C63.25432024 105.96259326 59.36334518 101.31011535 55.37028503 96.71539307 C54.8149408 96.07601807 54.25959656 95.43664307 53.68742371 94.77789307 C49.79835163 90.31429248 45.86126393 85.89691487 41.87028503 81.52398682 C39.46955704 78.82785675 37.1768242 76.05508193 34.87028503 73.27789307 C34.85997757 74.00230087 34.8496701 74.72670868 34.83905029 75.47306824 C34.74123736 82.28641208 34.63874644 89.09967106 34.53094578 95.91286373 C34.47568549 99.41593662 34.42226069 102.9190178 34.37297058 106.42218018 C34.31627836 110.44579451 34.25171103 114.46924838 34.18669128 118.49273682 C34.16162254 120.38801369 34.16162254 120.38801369 34.13604736 122.32157898 C34.11610214 123.48270706 34.09615692 124.64383514 34.0756073 125.84014893 C34.06006302 126.86829208 34.04451874 127.89643524 34.02850342 128.95573425 C33.87028503 131.27789307 33.87028503 131.27789307 32.87028503 132.27789307 C29.99764447 132.37896181 27.14954875 132.41758978 24.27653503 132.41070557 C23.4146759 132.41166229 22.55281677 132.41261902 21.6648407 132.41360474 C19.83895291 132.41428656 18.01306272 132.41243211 16.18717957 132.40826416 C13.38227425 132.40291593 10.57752908 132.40820906 7.77262878 132.41461182 C6.00309718 132.41395104 4.23356567 132.41266987 2.46403503 132.41070557 C1.61925598 132.4127298 0.77447693 132.41475403 -0.09590149 132.4168396 C-6.01476465 132.39284338 -6.01476465 132.39284338 -7.12971497 131.27789307 C-7.23020503 129.61228129 -7.26047726 127.94239574 -7.26342773 126.27375793 C-7.26769272 125.18984772 -7.2719577 124.1059375 -7.27635193 122.98918152 C-7.27589874 121.78967361 -7.27544556 120.59016571 -7.27497864 119.35430908 C-7.27833725 118.09916504 -7.28169586 116.844021 -7.28515625 115.55084229 C-7.29401646 112.09839314 -7.29633521 108.64596875 -7.29697204 105.19350934 C-7.29791949 102.31563488 -7.3015959 99.43776625 -7.30514413 96.55989403 C-7.3132964 89.77244997 -7.31572767 82.98501919 -7.3150177 76.1975708 C-7.31441672 69.18627406 -7.32497082 62.17505421 -7.34076136 55.16377693 C-7.35381887 49.15273123 -7.35920235 43.14171072 -7.35856229 37.13065094 C-7.35830677 33.5367605 -7.36118746 29.94293834 -7.37174034 26.34906197 C-7.38318181 22.34294467 -7.37868552 18.33700061 -7.37263489 14.33087158 C-7.37825439 13.13338791 -7.3838739 11.93590424 -7.3896637 10.70213318 C-7.38546921 9.61540314 -7.38127472 8.5286731 -7.37695312 7.40901184 C-7.37777028 5.98678991 -7.37777028 5.98678991 -7.37860394 4.53583622 C-6.86308328 -0.14101361 -4.0563051 0.03968411 0 0 Z " fill="#DFF7FE" transform="translate(263.1297149658203,-0.27789306640625)"/>
<path d="M0 0 C0.68079117 -0.00189835 1.36158234 -0.00379669 2.06300354 -0.00575256 C4.29529661 -0.00943134 6.52725768 0.00121096 8.75952148 0.01245117 C10.33023541 0.01364584 11.90095007 0.01409553 13.47166443 0.01383972 C16.7607777 0.01540017 20.04978148 0.02364987 23.33886719 0.03710938 C27.51529452 0.05399997 31.69160072 0.05792605 35.8680582 0.05716419 C39.11381649 0.05743891 42.3595493 0.06296939 45.605299 0.07016563 C47.14277898 0.07330762 48.68026181 0.07530901 50.21774483 0.07605934 C86.95472122 0.11358854 86.95472122 0.11358854 101.81811523 13.24291992 C109.95293014 21.87656781 112.18638389 32.89815418 112.02905273 44.41479492 C111.18569918 55.72197963 105.51829191 65.44467808 97.04077148 72.77026367 C94.10302825 74.71671218 91.0862592 75.9254371 87.81811523 77.24291992 C92.03122713 85.77505993 96.3172653 94.26294916 100.75561523 102.68041992 C101.17037109 103.46779541 101.58512695 104.2551709 102.01245117 105.06640625 C104.14007582 109.09581141 106.28570068 113.11460813 108.45483398 117.12182617 C108.87321533 117.89921143 109.29159668 118.67659668 109.72265625 119.47753906 C110.51856681 120.95488535 111.31960354 122.42948483 112.12646484 123.90087891 C114.81811523 128.90682266 114.81811523 128.90682266 114.81811523 132.24291992 C98.97811523 132.24291992 83.13811523 132.24291992 66.81811523 132.24291992 C58.81811523 116.24291992 58.81811523 116.24291992 55.24780273 108.15307617 C53.91514694 105.21154007 53.91514694 105.21154007 52.57495117 102.2734375 C51.97877473 100.94293409 51.40203907 99.60357508 50.84350586 98.25683594 C50.00827573 96.25739631 49.10611716 94.30179521 48.18530273 92.34057617 C47.68111816 91.19081299 47.17693359 90.0410498 46.6574707 88.85644531 C42.73851069 84.70448822 42.73851069 84.70448822 29.81811523 85.24291992 C29.81811523 100.75291992 29.81811523 116.26291992 29.81811523 132.24291992 C15.62811523 132.24291992 1.43811523 132.24291992 -13.18188477 132.24291992 C-14.03517177 128.8297719 -14.30557847 126.43139526 -14.30213928 122.97845459 C-14.30351395 121.91277252 -14.30488861 120.84709045 -14.30630493 119.74911499 C-14.30270966 118.58530304 -14.29911438 117.42149109 -14.29541016 116.22241211 C-14.29555618 114.99287811 -14.29570221 113.76334412 -14.29585266 112.49655151 C-14.29527554 109.12910311 -14.29026166 105.76171607 -14.2832787 102.39427853 C-14.27702568 98.87355162 -14.27643982 95.35282389 -14.2752533 91.83209229 C-14.27214573 85.16693257 -14.26394008 78.50178927 -14.25390381 71.83663678 C-14.24272484 64.24781523 -14.23722772 56.65899289 -14.23220837 49.07016516 C-14.221757 33.46107391 -14.20416867 17.85199903 -14.18188477 2.24291992 C-9.28859856 0.66350822 -5.19216581 -0.00605824 0 0 Z M29.81811523 32.24291992 C29.73111181 33.87764874 29.71110461 35.51606047 29.72045898 37.15307617 C29.72368164 38.14243164 29.7269043 39.13178711 29.73022461 40.15112305 C29.73860352 41.19204102 29.74698242 42.23295898 29.75561523 43.30541992 C29.76012695 44.35020508 29.76463867 45.39499023 29.76928711 46.47143555 C29.78111611 49.06198652 29.79759834 51.65242551 29.81811523 54.24291992 C33.99898676 54.31733982 38.17950254 54.3716481 42.36083984 54.40771484 C43.78180665 54.42275752 45.20272736 54.44319696 46.62353516 54.46923828 C48.67158409 54.50582339 50.71901674 54.52269089 52.76733398 54.53588867 C53.99798584 54.55159912 55.2286377 54.56730957 56.49658203 54.58349609 C60.12554031 54.21139784 61.93983891 53.44240301 64.81811523 51.24291992 C67.65807319 46.98298299 67.44088212 43.24102338 66.81811523 38.24291992 C65.51600382 35.11487437 65.51600382 35.11487437 62.81811523 33.24291992 C55.994042 30.99452585 49.51972547 30.9739526 42.38061523 31.05541992 C41.28040039 31.05606445 40.18018555 31.05670898 39.04663086 31.05737305 C34.08103802 30.61242006 34.08103802 30.61242006 29.81811523 32.24291992 Z " fill="#DFF7FE" transform="translate(564.181884765625,-0.242919921875)"/>
<path d="M0 0 C0.87611938 -0.00281982 1.75223877 -0.00563965 2.65490723 -0.00854492 C3.61854691 -0.00652069 4.58218658 -0.00449646 5.57502747 -0.00241089 C6.58820038 -0.00416321 7.60137329 -0.00591553 8.64524841 -0.00772095 C12.00963533 -0.01213788 15.37397005 -0.00920092 18.73835754 -0.00582886 C21.07285573 -0.0065022 23.40735386 -0.00747249 25.74185181 -0.00872803 C30.64376999 -0.010205 35.54566999 -0.00805143 40.44758606 -0.00338745 C46.72447003 0.00229409 53.0013111 -0.00095917 59.27819347 -0.00695992 C64.10380372 -0.01057898 68.92940386 -0.00942047 73.75501442 -0.00683212 C76.068622 -0.00616576 78.38223051 -0.00698111 80.69583702 -0.00931168 C83.93684175 -0.01185849 87.17777783 -0.00796826 90.41877747 -0.00241089 C91.84905525 -0.00544724 91.84905525 -0.00544724 93.30822754 -0.00854492 C94.6435553 -0.00431519 94.6435553 -0.00431519 96.00585938 0 C96.77111529 0.00037703 97.53637121 0.00075405 98.3248167 0.0011425 C101.50813266 0.16166366 104.66506279 0.67622279 107.82038879 1.12698364 C107.82038879 11.68698364 107.82038879 22.24698364 107.82038879 33.12698364 C84.72038879 33.12698364 61.62038879 33.12698364 37.82038879 33.12698364 C37.82038879 38.40698364 37.82038879 43.68698364 37.82038879 49.12698364 C39.49584778 49.12174683 41.17130676 49.11651001 42.89753723 49.1111145 C49.10716723 49.09302946 55.31679489 49.08153875 61.52644348 49.072052 C64.21525731 49.06758418 66.90404761 49.06062245 69.59284973 49.05154419 C73.4551613 49.03942993 77.31743671 49.03374419 81.17976379 49.02932739 C82.38405029 49.02416611 83.58833679 49.01900482 84.82911682 49.01368713 C85.94997681 49.0136116 87.07083679 49.01353607 88.22566223 49.01345825 C89.70458954 49.01012733 89.70458954 49.01012733 91.21339417 49.00672913 C93.82038879 49.12698364 93.82038879 49.12698364 97.82038879 50.12698364 C97.82038879 60.35698364 97.82038879 70.58698364 97.82038879 81.12698364 C78.02038879 81.12698364 58.22038879 81.12698364 37.82038879 81.12698364 C37.82038879 87.06698364 37.82038879 93.00698364 37.82038879 99.12698364 C61.25038879 99.12698364 84.68038879 99.12698364 108.82038879 99.12698364 C110.24542445 101.97705495 109.95018915 104.41318619 109.95320129 107.59573364 C109.95449036 108.88866333 109.95577942 110.18159302 109.95710754 111.51370239 C109.95501282 112.18836548 109.95291809 112.86302856 109.95075989 113.55813599 C109.94540973 115.61892054 109.95070914 117.67948714 109.95710754 119.74026489 C109.95581848 121.03319458 109.95452942 122.32612427 109.95320129 123.65823364 C109.95207336 124.84997192 109.95094543 126.04171021 109.94978333 127.26956177 C109.82038879 130.12698364 109.82038879 130.12698364 108.82038879 132.12698364 C70.87038879 132.12698364 32.92038879 132.12698364 -6.17961121 132.12698364 C-6.17961121 88.89698364 -6.17961121 45.66698364 -6.17961121 1.12698364 C-3.87152572 -0.0270591 -2.56756719 0.00126811 0 0 Z " fill="#DFF7FE" transform="translate(420.1796112060547,-0.126983642578125)"/>
<path d="M0 0 C0.79379059 -0.00095673 1.58758118 -0.00191345 2.40542603 -0.00289917 C4.07790201 -0.00357691 5.75038069 -0.00175106 7.42285156 0.00244141 C9.96164974 0.00778113 12.50026987 0.00248993 15.0390625 -0.00390625 C16.67187539 -0.00324512 18.30468816 -0.00196323 19.9375 0 C20.68671722 -0.00202423 21.43593445 -0.00404846 22.20785522 -0.00613403 C27.08561781 0.01519719 31.77126976 0.44608304 36.6015625 1.1328125 C36.81772217 1.76670898 37.03388184 2.40060547 37.2565918 3.05371094 C42.40606526 18.22333266 42.40606526 18.22333266 48.3359375 33.09765625 C52.02128209 41.93565856 55.19782096 51.00608157 58.30078125 60.0625 C58.59235107 60.91295898 58.8839209 61.76341797 59.18432617 62.63964844 C59.80534254 64.45459647 60.42392446 66.27037901 61.0402832 68.08691406 C63.34938697 74.79256454 65.85658186 81.39816006 68.4453125 88 C69.4837931 90.67441981 70.52070365 93.34944431 71.55737305 96.02456665 C72.24556265 97.78476402 72.94215702 99.54170181 73.64770508 101.29501343 C74.65388316 103.79684304 75.62977503 106.30886548 76.6015625 108.82421875 C76.90429077 109.5539389 77.20701904 110.28365906 77.5189209 111.03549194 C80.39283201 118.63264922 79.6015625 123.05494964 79.6015625 132.1328125 C65.7415625 132.1328125 51.8815625 132.1328125 37.6015625 132.1328125 C34.6015625 123.1328125 34.6015625 123.1328125 32.6015625 114.1328125 C17.7515625 114.1328125 2.9015625 114.1328125 -12.3984375 114.1328125 C-13.0584375 117.7628125 -13.7184375 121.3928125 -14.3984375 125.1328125 C-15.3884375 127.4428125 -16.3784375 129.7528125 -17.3984375 132.1328125 C-31.5884375 132.1328125 -45.7784375 132.1328125 -60.3984375 132.1328125 C-61.3984375 130.1328125 -61.3984375 130.1328125 -60.96801758 128.31811523 C-60.70400146 127.57505127 -60.43998535 126.8319873 -60.16796875 126.06640625 C-59.86576416 125.20539307 -59.56355957 124.34437988 -59.25219727 123.45727539 C-58.73677368 122.02822876 -58.73677368 122.02822876 -58.2109375 120.5703125 C-57.85507568 119.56669678 -57.49921387 118.56308105 -57.13256836 117.52905273 C-55.89780937 114.05999279 -54.64929803 110.59609815 -53.3984375 107.1328125 C-52.92634073 105.82197308 -52.45433786 104.51109983 -51.98242188 103.20019531 C-46.61175113 88.29306872 -41.15568514 73.42139668 -35.54882812 58.60131836 C-33.07296773 52.02355041 -30.74107109 45.40563826 -28.4609375 38.7578125 C-27.11559281 34.87969545 -25.75806242 31.0059425 -24.3984375 27.1328125 C-23.99447754 25.97136719 -23.59051758 24.80992188 -23.17431641 23.61328125 C-21.90053431 19.98466876 -20.59126659 16.3706314 -19.2734375 12.7578125 C-18.67994507 11.04392334 -18.67994507 11.04392334 -18.07446289 9.29541016 C-17.68379639 8.24401855 -17.29312988 7.19262695 -16.890625 6.109375 C-16.55401855 5.17174316 -16.21741211 4.23411133 -15.87060547 3.26806641 C-14.3984375 1.1328125 -14.3984375 1.1328125 -11.76757812 0.33007812 C-7.84100582 0.10017447 -3.93204183 -0.01056647 0 0 Z M9.6015625 40.1328125 C7.88730671 45.7729116 6.17845182 51.41460766 4.47460938 57.05786133 C3.89406592 58.97790816 3.31204196 60.89750799 2.72851562 62.81665039 C1.89064318 65.57322224 1.05808589 68.33135105 0.2265625 71.08984375 C-0.03592285 71.94931107 -0.2984082 72.80877838 -0.56884766 73.69429016 C-0.92922119 74.89519539 -0.92922119 74.89519539 -1.296875 76.12036133 C-1.51005371 76.8242952 -1.72323242 77.52822906 -1.94287109 78.25349426 C-2.51623119 80.29644791 -2.51623119 80.29644791 -2.3984375 83.1328125 C5.8515625 83.1328125 14.1015625 83.1328125 22.6015625 83.1328125 C19.41540922 68.52960996 15.11563152 54.3764415 10.6015625 40.1328125 C10.2715625 40.1328125 9.9415625 40.1328125 9.6015625 40.1328125 Z " fill="#DFF7FE" transform="translate(880.3984375,-0.1328125)"/>
<path d="M0 0 C7.88766065 7.38493063 12.35804426 14.14704152 12.90234375 25.203125 C13.09103526 33.76500205 12.35080677 40.77056876 6.77734375 47.6640625 C4.72914315 49.56054453 2.63883212 51.37370844 0.484375 53.1484375 C-1.33119173 54.57120148 -1.33119173 54.57120148 -2.22265625 56.6640625 C-1.50207031 56.90769531 -0.78148437 57.15132813 -0.0390625 57.40234375 C7.3969419 60.73359121 13.45811231 67.30402758 16.77734375 74.6640625 C19.2822716 82.29812833 18.87719746 93.17359605 15.87890625 100.61328125 C8.77197665 113.84426721 -1.49472216 118.60077293 -15.10791016 123.0949707 C-22.56422114 125.10151202 -30.05978296 124.88407082 -37.72265625 124.9140625 C-39.65238281 124.945 -39.65238281 124.945 -41.62109375 124.9765625 C-59.04334976 125.04667218 -74.29305774 121.27893316 -87.15625 109.03515625 C-94.24374544 100.90262368 -94.74696511 91.00235774 -94.22265625 80.6640625 C-93.03103941 71.59872425 -87.84737399 65.54609888 -81.22265625 59.6640625 C-76.86781754 56.6640625 -76.86781754 56.6640625 -74.22265625 56.6640625 C-74.90328125 55.9834375 -75.58390625 55.3028125 -76.28515625 54.6015625 C-76.73761719 54.14265625 -77.19007813 53.68375 -77.65625 53.2109375 C-78.74815985 52.13264249 -79.86802421 51.08224281 -81.0078125 50.0546875 C-86.78468225 44.70709682 -89.73699935 38.57100575 -90.390625 30.62109375 C-90.48817375 19.91024134 -87.97540027 12.16608878 -81.22265625 3.6640625 C-75.97559293 -1.50654088 -70.07827019 -4.77698438 -63.22265625 -7.3359375 C-62.48015625 -7.62339844 -61.73765625 -7.91085938 -60.97265625 -8.20703125 C-42.21567308 -15.01295049 -15.68020737 -12.92871221 0 0 Z M-52.22265625 19.6640625 C-54.8672004 23.63087872 -55.24621203 26.94505463 -55.22265625 31.6640625 C-54.35139491 35.4602726 -53.59716383 37.68599184 -50.3671875 39.984375 C-44.26838075 43.07155859 -37.76028878 44.00066345 -31.140625 42.05078125 C-27.20094881 40.4334405 -23.84478103 38.97052454 -21.97265625 35.0390625 C-20.77126534 29.63280343 -21.05511272 25.5160281 -24.03515625 20.7890625 C-28.36987198 16.57819579 -32.20724653 16.32454227 -38.09765625 16.3515625 C-38.79246094 16.33544922 -39.48726563 16.31933594 -40.203125 16.30273438 C-44.95796517 16.29825712 -48.21456522 17.10965225 -52.22265625 19.6640625 Z M-53.09765625 74.3515625 C-55.5547847 79.40232654 -55.6524583 84.12183163 -54.16015625 89.4765625 C-51.40056986 94.0165272 -48.2048977 96.00331535 -43.22265625 97.6640625 C-36.05500007 98.44066468 -31.39800937 97.32353102 -25.22265625 93.6640625 C-25.22265625 93.0040625 -25.22265625 92.3440625 -25.22265625 91.6640625 C-24.56265625 91.6640625 -23.90265625 91.6640625 -23.22265625 91.6640625 C-20.95096304 86.45253102 -20.84549333 82.10234818 -22.22265625 76.6640625 C-24.7557741 72.34838024 -27.49905604 70.26671257 -32.22265625 68.6640625 C-40.88504084 67.67614103 -46.541141 68.45069878 -53.09765625 74.3515625 Z " fill="#DFF7FE" transform="translate(473.22265625,161.3359375)"/>
<path d="M0 0 C15.82101978 -0.28882186 32.43039054 1.86877527 44.4765625 13.1171875 C57.08035891 25.35106116 61.03891277 42.0090616 61.4765625 59.1171875 C61.50492188 60.10203125 61.53328125 61.086875 61.5625 62.1015625 C61.60318272 65.11208369 61.55800566 68.10749251 61.4765625 71.1171875 C61.44820312 72.34050781 61.41984375 73.56382812 61.390625 74.82421875 C60.61414116 93.66319573 56.59260595 111.62671053 42.4765625 125.1171875 C38.68223792 128.52818135 34.7596798 130.49268584 30.0390625 132.3046875 C29.39646484 132.56443359 28.75386719 132.82417969 28.09179688 133.09179688 C19.96626572 136.28426445 12.27368188 136.29985877 3.6640625 136.3046875 C2.52646484 136.31693359 1.38886719 136.32917969 0.21679688 136.34179688 C-14.48147711 136.36724109 -27.40549273 132.52689469 -38.1484375 122.1171875 C-47.12088793 112.40929031 -48.5234375 104.91710604 -48.5234375 91.1171875 C-37.3034375 91.1171875 -26.0834375 91.1171875 -14.5234375 91.1171875 C-13.5334375 94.0871875 -12.5434375 97.0571875 -11.5234375 100.1171875 C-8.67405212 104.24129792 -6.48903476 107.01372144 -1.5234375 108.1171875 C4.13982638 108.73464728 9.14327331 108.74343576 14.0078125 105.51953125 C18.7954737 100.94833346 20.37311479 94.41510056 20.57421875 88.00390625 C20.56261719 86.94816406 20.55101562 85.89242187 20.5390625 84.8046875 C20.53003906 83.73605469 20.52101563 82.66742188 20.51171875 81.56640625 C20.50011719 80.75816406 20.48851562 79.94992188 20.4765625 79.1171875 C19.27 80.014375 19.27 80.014375 18.0390625 80.9296875 C6.76429059 88.28960806 -7.5170871 88.02493965 -20.3671875 85.83984375 C-31.631372 83.26079161 -40.80100823 76.45010326 -47.5234375 67.1171875 C-50.68111715 61.65344483 -52.2445284 56.39870558 -52.5234375 50.1171875 C-52.56339844 49.40820312 -52.60335937 48.69921875 -52.64453125 47.96875 C-52.99351759 36.26744315 -49.99120869 25.85194608 -42.3359375 16.9296875 C-32.77012483 6.91426613 -20.1234307 0.95983662 -6.171875 0.171875 C-4.11422438 0.12938664 -2.05695187 0.06841303 0 0 Z M-9.5234375 31.1171875 C-14.45026605 37.24243381 -14.33090825 43.475757 -13.5234375 51.1171875 C-11.91695002 55.93664993 -9.67183505 58.24521996 -5.5234375 61.1171875 C-0.51220517 63.62280366 7.59033789 62.99065021 12.8515625 61.3984375 C17.31487858 59.01287201 19.46496282 55.87609572 21.1640625 51.2421875 C22.12020057 44.74044864 21.37153297 39.00970614 18.4765625 33.1171875 C13.6839183 28.44143706 10.14600115 27.91336338 3.6640625 27.8671875 C2.59575195 27.83625 2.59575195 27.83625 1.50585938 27.8046875 C-3.05564079 27.77092987 -5.91103681 28.29872103 -9.5234375 31.1171875 Z " fill="#DFF7FE" transform="translate(682.5234375,149.8828125)"/>
<path d="M0 0 C5.28360659 -0.02482718 10.56717878 -0.04292007 15.85083008 -0.05493164 C17.6460835 -0.05994225 19.44133287 -0.06675255 21.23657227 -0.07543945 C23.82569378 -0.0876489 26.41476107 -0.09326116 29.00390625 -0.09765625 C30.19651817 -0.10539818 30.19651817 -0.10539818 31.41322327 -0.11329651 C36.04898956 -0.11375707 40.4268467 0.23115689 45 1 C48.40626358 8.90562194 50.87201895 16.98752756 53.22265625 25.2578125 C53.61277461 26.61456643 54.00344603 27.97116145 54.39463806 29.3276062 C55.4153796 32.870903 56.43054646 36.4157682 57.44390869 39.96118164 C59.06758691 45.64077121 60.69702316 51.31869171 62.33184624 56.99508286 C62.89689474 58.9616576 63.45779117 60.92938203 64.01832581 62.89724731 C66.15291423 70.33888735 66.15291423 70.33888735 68.75561523 77.62451172 C70 81 70 81 70 85 C70.66 85 71.32 85 72 85 C72.0825 83.97390625 72.165 82.9478125 72.25 81.890625 C73.07745429 75.33419902 75.12615591 69.06780453 77 62.75 C77.40275251 61.37689616 77.80542045 60.00376751 78.20800781 58.63061523 C81.60928445 47.08898679 85.24660565 35.62871247 89.0078125 24.19921875 C90.24807493 20.40965642 91.40559466 16.62303771 92.4296875 12.76953125 C92.63754883 12.01212646 92.84541016 11.25472168 93.05957031 10.47436523 C93.57539353 8.55918221 94.0589753 6.6353896 94.5390625 4.7109375 C96 2 96 2 98.75 0.61328125 C104.83539034 -0.61487555 111.20128052 -0.24638588 117.375 -0.1875 C118.65117188 -0.18685547 119.92734375 -0.18621094 121.2421875 -0.18554688 C127.90761769 -0.15456089 134.39441309 0.10054644 141 1 C139.09740958 8.49998789 136.73812021 15.66679579 133.9375 22.875 C130.54755932 31.76073252 127.3271645 40.68873847 124.25 49.6875 C123.41162288 52.13807713 122.57307581 54.58859613 121.734375 57.0390625 C121.41014305 57.98651588 121.41014305 57.98651588 121.07936096 58.95310974 C118.26242301 67.17119078 115.38192394 75.36702878 112.5 83.5625 C112.22607422 84.34149658 111.95214844 85.12049316 111.66992188 85.9230957 C107.8837809 96.68517904 104.07944027 107.44074663 100.25 118.1875 C99.83169922 119.36320557 99.41339844 120.53891113 98.98242188 121.75024414 C98.41104492 123.34920532 98.41104492 123.34920532 97.828125 124.98046875 C97.3316748 126.37108521 97.3316748 126.37108521 96.82519531 127.78979492 C96 130 96 130 95 132 C78.5 132 62 132 45 132 C37.01090882 112.59792143 37.01090882 112.59792143 34 103.1875 C33.32011911 101.11031387 32.63911343 99.03349559 31.95703125 96.95703125 C31.62654785 95.94721191 31.29606445 94.93739258 30.95556641 93.89697266 C26.62727405 80.77497032 21.83908029 67.81718469 17.05090332 54.85787964 C12.69847384 43.0634615 8.57408199 31.19671403 4.52832031 19.29394531 C4.19529655 18.31564507 4.19529655 18.31564507 3.85554504 17.31758118 C3.25622239 15.55526798 2.65915528 13.79218817 2.06225586 12.02905273 C1.0601077 9.0294665 1.0601077 9.0294665 -0.20092773 6.34790039 C-1.0903995 3.7343807 -0.9447559 2.55084093 0 0 Z " fill="#DFF7FE" transform="translate(685,0)"/>
<path d="M0 0 C11.86627298 10.11231657 16.64735743 26.74785677 18.23587036 41.8704834 C18.58781374 47.10087902 18.57406241 52.32328061 18.5 57.5625 C18.49379639 58.34870728 18.48759277 59.13491455 18.48120117 59.94494629 C18.30724822 78.765318 16.18509193 97.42991481 3.64453125 112.4453125 C-8.13072832 123.78999819 -22.13718352 125.98351701 -37.875 125.9375 C-39.51662109 125.96166992 -39.51662109 125.96166992 -41.19140625 125.98632812 C-56.16238875 125.99518669 -67.85068054 122.2274171 -78.7421875 111.96875 C-94.22007848 95.90173514 -94.66540199 71.41217319 -94.28515625 50.53125 C-93.7073281 32.62099503 -89.11161779 13.32699469 -76 0.3125 C-56.84907095 -15.59305349 -19.55843836 -14.40977661 0 0 Z M-50 21.625 C-55.89485638 31.5199375 -55.30757096 44.47969409 -55.20581055 55.67333984 C-55.18745585 57.75500737 -55.1853026 59.83622822 -55.18554688 61.91796875 C-55.55694837 78.43166297 -55.55694837 78.43166297 -50 93.625 C-45.18964828 98.20628735 -41.9987991 98.92901728 -35.5390625 98.8359375 C-32.0308365 98.54448488 -29.86310463 97.67007474 -27 95.625 C-20.82553945 88.2499499 -20.69069639 79.82781591 -20.69921875 70.66015625 C-20.69279106 69.11103798 -20.69279106 69.11103798 -20.68623352 67.53062439 C-20.68051574 65.35644257 -20.67997103 63.18224162 -20.68432617 61.00805664 C-20.6874871 57.70099963 -20.6639908 54.39483739 -20.63867188 51.08789062 C-20.63639856 48.96614695 -20.63569554 46.84440089 -20.63671875 44.72265625 C-20.627509 43.74426285 -20.61829926 42.76586945 -20.60881042 41.75782776 C-20.67052433 32.49899647 -22.45172946 25.34117491 -29 18.625 C-35.34292799 15.453536 -45.12593559 16.62267074 -50 21.625 Z " fill="#DFF7FE" transform="translate(599,160.375)"/>
<path d="M0 0 C7.11209028 6.6238461 12.20290657 14.52240351 12.91015625 24.4375 C13.10702195 37.93920564 10.16103938 46.0734667 1.70703125 56.58984375 C1.17078125 57.35425781 0.63453125 58.11867188 0.08203125 58.90625 C-0.59859375 59.73962891 -0.59859375 59.73962891 -1.29296875 60.58984375 C-1.95296875 60.58984375 -2.61296875 60.58984375 -3.29296875 60.58984375 C-3.29296875 61.24984375 -3.29296875 61.90984375 -3.29296875 62.58984375 C-14.27553511 71.75460603 -26.53063712 79.54193264 -38.29296875 87.58984375 C-21.46296875 87.91984375 -4.63296875 88.24984375 12.70703125 88.58984375 C14.71968584 92.61515293 14.95461244 94.18413935 14.9375 98.52734375 C14.93556641 99.66945313 14.93363281 100.8115625 14.93164062 101.98828125 C14.91939453 103.17679687 14.90714844 104.3653125 14.89453125 105.58984375 C14.89356445 107.37261719 14.89356445 107.37261719 14.89257812 109.19140625 C14.84605012 118.35225313 14.84605012 118.35225313 13.70703125 122.58984375 C1.48785516 123.3866453 -10.6665771 123.74005872 -22.91015625 123.72265625 C-24.62688206 123.72333281 -26.34360777 123.72430574 -28.06033325 123.72555542 C-31.62161185 123.72701348 -35.18286503 123.7249381 -38.74414062 123.72021484 C-43.27579689 123.71449241 -47.80739422 123.7178245 -52.33904839 123.72378731 C-55.87035558 123.7274222 -59.40164906 123.72624139 -62.9329567 123.72365952 C-64.60327283 123.72299969 -66.27359027 123.72378503 -67.94390488 123.72613907 C-87.5074396 123.74769284 -87.5074396 123.74769284 -95.29296875 122.58984375 C-96.29296875 121.58984375 -96.29296875 121.58984375 -96.3125 118.125 C-95.74963473 103.35020422 -92.16605703 92.40947969 -81.34765625 81.65625 C-80.0483985 80.51742691 -78.72860398 79.40166328 -77.390625 78.30859375 C-75.12002443 76.44813891 -73.00059404 74.46841254 -70.85546875 72.46484375 C-65.69660434 67.79161318 -60.18677552 63.65840744 -54.63012695 59.47827148 C-49.344503 55.47212047 -44.41473602 51.26692654 -39.58984375 46.7109375 C-37.29296875 44.58984375 -37.29296875 44.58984375 -34.640625 42.4765625 C-31.024356 39.57030971 -28.68202481 36.83412083 -27.87109375 32.15625 C-27.63746685 27.78872493 -27.82358013 25.31663903 -30.23046875 21.58984375 C-35.60138221 18.08230843 -40.70488213 17.05374207 -47.04296875 18.15234375 C-51.94110971 19.4773208 -54.82062874 22.07109065 -57.38671875 26.4609375 C-58.38603842 28.80847724 -58.65840257 30.74064085 -58.85546875 33.27734375 C-59.19332462 37.49019962 -59.19332462 37.49019962 -60.29296875 38.58984375 C-62.80221028 38.69071587 -65.28333259 38.72956407 -67.79296875 38.72265625 C-68.54384766 38.72361298 -69.29472656 38.7245697 -70.06835938 38.72555542 C-71.65885502 38.72623713 -73.24935342 38.72438347 -74.83984375 38.72021484 C-77.2826153 38.71486642 -79.72520296 38.72016009 -82.16796875 38.7265625 C-83.70963582 38.72590172 -85.25130278 38.72462055 -86.79296875 38.72265625 C-87.52837891 38.72468048 -88.26378906 38.72670471 -89.02148438 38.72879028 C-94.17801714 38.70479536 -94.17801714 38.70479536 -95.29296875 37.58984375 C-96.3898867 26.34643479 -94.22258985 15.91401691 -87.296875 6.90625 C-77.20448741 -4.75999921 -64.42180626 -9.96292343 -49.1875 -11.25 C-32.15247553 -12.19255871 -13.78120126 -11.40213072 0 0 Z " fill="#DFF7FE" transform="translate(223.29296875,161.41015625)"/>
<path d="M0 0 C7.92 0 15.84 0 24 0 C23.65940976 8.28769589 22.27160521 16.03276861 20.5 24.125 C20.27417236 25.1569751 20.04834473 26.1889502 19.81567383 27.25219727 C18.14446608 34.71106785 18.14446608 34.71106785 17 37 C23.27 37 29.54 37 36 37 C36.4125 34.56625 36.825 32.1325 37.25 29.625 C38.38887119 23.06905764 39.685442 16.55900073 41.125 10.0625 C41.29547852 9.28793457 41.46595703 8.51336914 41.64160156 7.71533203 C42.87133102 2.25733795 42.87133102 2.25733795 44 0 C51.92 0 59.84 0 68 0 C67.38084192 5.57242269 66.77021812 10.60432138 65.58984375 16.00390625 C65.32236328 17.23818359 65.05488281 18.47246094 64.77929688 19.74414062 C64.50150391 21.00419922 64.22371094 22.26425781 63.9375 23.5625 C63.652578 24.87035198 63.36806969 26.17829415 63.08398438 27.48632812 C62.39337262 30.6584601 61.69861189 33.8296221 61 37 C62.60681641 36.98259766 62.60681641 36.98259766 64.24609375 36.96484375 C65.64322743 36.95546701 67.04036299 36.94636669 68.4375 36.9375 C69.14455078 36.92912109 69.85160156 36.92074219 70.58007812 36.91210938 C72.38693559 36.90346412 74.19387603 36.94779989 76 37 C77 38 77 38 77.11352539 40.13305664 C77.10567017 41.50772095 77.10567017 41.50772095 77.09765625 42.91015625 C77.09282227 44.39418945 77.09282227 44.39418945 77.08789062 45.90820312 C77.07532227 47.46958008 77.07532227 47.46958008 77.0625 49.0625 C77.05798828 50.10728516 77.05347656 51.15207031 77.04882812 52.22851562 C77.03699927 54.81903454 77.01906319 57.40952422 77 60 C67.1 60.495 67.1 60.495 57 61 C55.55244413 65.3426676 54.37186621 69.43441413 53.375 73.875 C53.11460938 75.02742188 52.85421875 76.17984375 52.5859375 77.3671875 C52.39257812 78.23601562 52.19921875 79.10484375 52 80 C53.12019531 80.06058594 54.24039063 80.12117188 55.39453125 80.18359375 C56.86719984 80.26801424 58.33985544 80.35266149 59.8125 80.4375 C60.55048828 80.47681641 61.28847656 80.51613281 62.04882812 80.55664062 C65.23071342 80.74381035 67.96162378 80.98720793 71 82 C71 89.26 71 96.52 71 104 C62.42 104 53.84 104 45 104 C44.67 107.63 44.34 111.26 44 115 C43.41145069 118.20007761 42.79126911 121.33567909 42.0625 124.5 C41.80823242 125.675625 41.80823242 125.675625 41.54882812 126.875 C40.75354882 130.40688679 40.02718581 132.95922129 38 136 C35.66162109 136.34057617 35.66162109 136.34057617 32.7734375 136.29296875 C31.7421875 136.28330078 30.7109375 136.27363281 29.6484375 136.26367188 C28.56820312 136.23853516 27.48796875 136.21339844 26.375 136.1875 C25.28703125 136.17396484 24.1990625 136.16042969 23.078125 136.14648438 C20.38492591 136.11104754 17.69270626 136.06164331 15 136 C15.73265438 129.06083669 17.10627095 122.32021002 18.5625 115.5 C18.91344727 113.83710938 18.91344727 113.83710938 19.27148438 112.140625 C19.8447338 109.42646445 20.42196358 106.7131451 21 104 C14.4 104 7.8 104 1 104 C0.67 106.97 0.34 109.94 0 113 C-0.28755678 114.80493226 -0.5959377 116.60684812 -0.9375 118.40234375 C-1.11023437 119.31177734 -1.28296875 120.22121094 -1.4609375 121.15820312 C-1.63882813 122.07537109 -1.81671875 122.99253906 -2 123.9375 C-2.17789063 124.88173828 -2.35578125 125.82597656 -2.5390625 126.79882812 C-3.87106199 133.74212398 -3.87106199 133.74212398 -5 136 C-12.92 136 -20.84 136 -29 136 C-28.33883167 128.72714833 -27.55994546 121.99681838 -26 114.9375 C-25.82210938 114.09767578 -25.64421875 113.25785156 -25.4609375 112.39257812 C-24.14531029 106.29062058 -24.14531029 106.29062058 -23 104 C-28.28 104 -33.56 104 -39 104 C-39 96.41 -39 88.82 -39 81 C-31.74 81 -24.48 81 -17 81 C-16.67 78.03 -16.34 75.06 -16 72 C-15.12999077 67.95648561 -14.05776717 64.00111931 -13 60 C-19.6 60 -26.2 60 -33 60 C-33.02682987 56.35411831 -33.04675569 52.70843154 -33.0625 49.0625 C-33.07087891 48.02158203 -33.07925781 46.98066406 -33.08789062 45.90820312 C-33.09111328 44.91884766 -33.09433594 43.92949219 -33.09765625 42.91015625 C-33.10289307 41.99371338 -33.10812988 41.07727051 -33.11352539 40.13305664 C-33 38 -33 38 -32 37 C-30.21928754 36.91273777 -28.4351686 36.89300959 -26.65234375 36.90234375 C-25.57275391 36.90556641 -24.49316406 36.90878906 -23.38085938 36.91210938 C-21.67639648 36.92467773 -21.67639648 36.92467773 -19.9375 36.9375 C-18.22723633 36.94426758 -18.22723633 36.94426758 -16.48242188 36.95117188 C-13.65489649 36.96300253 -10.8274736 36.9794859 -8 37 C-7.89768066 36.30398682 -7.79536133 35.60797363 -7.68994141 34.89086914 C-6.60533255 27.66131267 -5.06009058 20.56296577 -3.4375 13.4375 C-3.21553955 12.46151855 -2.9935791 11.48553711 -2.76489258 10.47998047 C-1.13840561 3.41521684 -1.13840561 3.41521684 0 0 Z M11 61 C10.32781493 63.74875682 9.66207565 66.49880726 9 69.25 C8.80921875 70.02730469 8.6184375 70.80460937 8.421875 71.60546875 C8.24140625 72.35957031 8.0609375 73.11367187 7.875 73.890625 C7.70742188 74.58188477 7.53984375 75.27314453 7.3671875 75.98535156 C6.88046329 78.31455624 6.88046329 78.31455624 7 82 C9.95839355 82.02689449 12.91654427 82.04678741 15.875 82.0625 C16.71675781 82.07087891 17.55851562 82.07925781 18.42578125 82.08789062 C19.23144531 82.09111328 20.03710938 82.09433594 20.8671875 82.09765625 C21.61081543 82.10289307 22.35444336 82.10812988 23.12060547 82.11352539 C25.09132568 82.11786636 25.09132568 82.11786636 27 81 C27.80943808 78.41216145 28.4993744 75.88226179 29.125 73.25 C29.30675781 72.53328125 29.48851563 71.8165625 29.67578125 71.078125 C30.59700764 67.31010126 31.23088267 63.90961317 31 60 C29.16675453 59.97250132 27.3333829 59.95338327 25.5 59.9375 C23.96859375 59.92009766 23.96859375 59.92009766 22.40625 59.90234375 C18.53793915 60.01324716 14.8324017 60.47096194 11 61 Z " fill="#DFF7FE" transform="translate(39,150)"/>
<path d="M0 0 C1.60279192 0.00015914 3.20558896 0.00585476 4.80834961 0.01586914 C5.65038437 0.01728409 6.49241913 0.01869904 7.35997009 0.02015686 C10.06024671 0.02577276 12.76044163 0.03832791 15.46069336 0.05102539 C17.28686404 0.05603834 19.11303602 0.06060161 20.93920898 0.06469727 C25.42556878 0.07574735 29.9118672 0.0930226 34.39819336 0.11352539 C34.26540869 1.53310713 34.12539417 2.95201356 33.98242188 4.37060547 C33.8666555 5.5559362 33.8666555 5.5559362 33.74855042 6.76521301 C33.20749177 10.39172685 31.87390838 13.49602693 30.33569336 16.80102539 C30.0233374 17.48890137 29.71098145 18.17677734 29.38916016 18.88549805 C20.54158496 37.98676915 8.39963341 55.32759862 -5.14477539 71.36279297 C-6.9957209 73.58684295 -8.79424555 75.85407402 -10.60180664 78.11352539 C0.61819336 78.11352539 11.83819336 78.11352539 23.39819336 78.11352539 C23.16239474 69.34795127 23.16239474 69.34795127 22.85766602 60.5847168 C22.74221188 52.0175236 24.29792404 46.94727237 29.39819336 40.11352539 C33.85306071 32.92913891 37.53923243 25.95664847 40.18139648 17.92529297 C40.84350586 16.07055664 40.84350586 16.07055664 42.39819336 13.11352539 C44.68725586 12.19555664 44.68725586 12.19555664 47.39819336 12.11352539 C48.41397461 12.06969727 49.42975586 12.02586914 50.47631836 11.98071289 C51.52303711 11.98329102 52.56975586 11.98586914 53.64819336 11.98852539 C55.23374023 11.9846582 55.23374023 11.9846582 56.85131836 11.98071289 C59.39819336 12.11352539 59.39819336 12.11352539 60.39819336 13.11352539 C60.49228815 15.13846771 60.51562458 17.16672409 60.51171875 19.19384766 C60.51160545 21.14575768 60.51160545 21.14575768 60.51148987 23.13710022 C60.50638245 24.56804441 60.50116644 25.99898821 60.49584961 27.42993164 C60.49398539 28.88581799 60.49256151 30.34170496 60.49156189 31.79759216 C60.48773701 35.63631918 60.477907 39.47500858 60.46685791 43.3137207 C60.45664313 47.22810355 60.45206413 51.14249245 60.44702148 55.05688477 C60.43628469 62.7424508 60.41868815 70.42797804 60.39819336 78.11352539 C66.33819336 78.11352539 72.27819336 78.11352539 78.39819336 78.11352539 C78.39819336 87.68352539 78.39819336 97.25352539 78.39819336 107.11352539 C72.45819336 107.11352539 66.51819336 107.11352539 60.39819336 107.11352539 C60.39819336 116.02352539 60.39819336 124.93352539 60.39819336 134.11352539 C28.62172277 135.85470186 28.62172277 135.85470186 23.39819336 134.11352539 C22.90319336 121.24352539 22.90319336 121.24352539 22.39819336 108.11352539 C20.52526611 108.08846924 18.65233887 108.06341309 16.72265625 108.03759766 C10.54791448 107.95384331 4.37325035 107.86557174 -1.80138302 107.77418613 C-5.54659462 107.71892308 -9.29181398 107.66549784 -13.03710938 107.61621094 C-16.6486925 107.56861705 -20.26017796 107.51627633 -23.87164497 107.46058464 C-25.25238183 107.44013845 -26.6331455 107.42142917 -28.01392937 107.40445137 C-29.94163978 107.38045759 -31.86926413 107.34982275 -33.796875 107.31884766 C-34.89607773 107.30330338 -35.99528046 107.28775909 -37.12779236 107.27174377 C-39.60180664 107.11352539 -39.60180664 107.11352539 -40.60180664 106.11352539 C-41.00000455 101.66496223 -41.02072779 97.2023668 -41.10180664 92.73852539 C-41.15594727 91.49973633 -41.21008789 90.26094727 -41.26586914 88.98461914 C-41.40414022 79.61181529 -39.14853227 74.52166274 -33.60180664 67.11352539 C-32.53649799 65.11578028 -31.50318535 63.09963611 -30.53930664 61.05102539 C-28.79918803 57.36451271 -26.87480111 53.9121031 -24.72680664 50.45336914 C-21.47650238 45.08628482 -19.02291 39.54332885 -16.66430664 33.73852539 C-16.23899658 32.70719482 -15.81368652 31.67586426 -15.37548828 30.61328125 C-11.90306064 22.09135691 -8.81264796 13.46236856 -5.87915039 4.74243164 C-4.25708519 0.13417912 -4.25708519 0.13417912 0 0 Z " fill="#DFF7FE" transform="translate(289.601806640625,149.886474609375)"/>
<path d="M0 0 C1.35581932 -0.0049926 1.35581932 -0.0049926 2.73902893 -0.01008606 C4.65487152 -0.01515921 6.57072297 -0.01749427 8.48657227 -0.01733398 C11.42544043 -0.01951938 14.36393277 -0.0376679 17.30273438 -0.05664062 C19.16015496 -0.05957462 21.01757734 -0.06155938 22.875 -0.0625 C23.75836533 -0.06968552 24.64173065 -0.07687103 25.55186462 -0.08427429 C31.77508486 -0.06085264 31.77508486 -0.06085264 34.00390625 2.16796875 C34.25279522 4.40750122 34.25279522 4.40750122 34.25114441 7.25439453 C34.2553389 8.33126526 34.25953339 9.40813599 34.26385498 10.51763916 C34.25823547 11.70420105 34.25261597 12.89076294 34.24682617 14.11328125 C34.24872452 15.35881775 34.25062286 16.60435425 34.25257874 17.88763428 C34.25565499 21.30911816 34.24976244 24.73036183 34.23962569 28.15181732 C34.23085671 31.72767494 34.23260241 35.30352835 34.23298645 38.87939453 C34.23204926 44.88511334 34.22335804 50.89078169 34.2097168 56.89648438 C34.1939907 63.84586673 34.18871867 70.7951938 34.18945235 77.74459267 C34.19006218 84.42200108 34.18496083 91.09939144 34.17666054 97.77679443 C34.17312465 100.6220514 34.17129685 103.46730198 34.17076683 106.31256104 C34.16957808 110.28261275 34.1598752 114.25261824 34.14916992 118.22265625 C34.14962311 119.40921814 34.15007629 120.59578003 34.15054321 121.81829834 C34.14627823 122.89516907 34.14201324 123.97203979 34.13761902 125.08154297 C34.13594317 126.02101776 34.13426733 126.96049255 34.1325407 127.92843628 C34.00390625 130.16796875 34.00390625 130.16796875 33.00390625 132.16796875 C18.81390625 132.16796875 4.62390625 132.16796875 -9.99609375 132.16796875 C-10.01864047 115.10495981 -10.03707274 98.04196351 -10.04790592 80.97894382 C-10.05306896 73.0568393 -10.0601118 65.13474466 -10.0715332 57.21264648 C-10.08147981 50.31022238 -10.08794712 43.40780544 -10.09018224 36.50537437 C-10.09148939 32.84836214 -10.09457549 29.19137039 -10.10182381 25.5343647 C-10.10983723 21.45852869 -10.1100849 17.38272862 -10.10961914 13.30688477 C-10.11321442 12.08553329 -10.11680969 10.86418182 -10.12051392 9.6058197 C-10.11913925 8.50219086 -10.11776459 7.39856201 -10.11634827 6.26148987 C-10.11727006 5.29637261 -10.11819185 4.33125536 -10.11914158 3.33689213 C-9.82531486 -1.84229419 -3.98459321 0.00500813 0 0 Z " fill="#DFF7FE" transform="translate(194.99609375,-0.16796875)"/>
</svg>
