<?xml version="1.0" encoding="UTF-8"?>
<svg version="1.1" xmlns="http://www.w3.org/2000/svg" width="512" height="512">
<path d="M0 0 C5.46592713 4.20803993 8.21144025 10.3438115 11.4375 16.3125 C12.67254507 18.55965782 13.90957995 20.80572299 15.1484375 23.05078125 C15.78104492 24.19885254 16.41365234 25.34692383 17.06542969 26.52978516 C20.70587068 33.0599755 24.50342815 39.49809609 28.29272461 45.94262695 C29.86794203 48.62490521 31.4363472 51.31096592 33 54 C33.73827026 55.26203247 33.73827026 55.26203247 34.49145508 56.54956055 C34.94544678 57.34144775 35.39943848 58.13333496 35.8671875 58.94921875 C36.26663574 59.64104248 36.66608398 60.33286621 37.07763672 61.0456543 C38.56507291 64.19730245 38.59810759 66.61072367 38 70 C35.78136971 72.90717073 34.48055071 73.83981643 31 75 C29.0079697 75.08291953 27.01326287 75.10738177 25.01953125 75.09765625 C23.85615234 75.09443359 22.69277344 75.09121094 21.49414062 75.08789062 C20.27919922 75.07951172 19.06425781 75.07113281 17.8125 75.0625 C16.58595703 75.05798828 15.35941406 75.05347656 14.09570312 75.04882812 C11.06375332 75.03703065 8.03190094 75.02056921 5 75 C2.21946459 95.86890486 2.21946459 95.86890486 8.22705078 114.96533203 C14.07802003 119.66869333 20.86036115 122.28741949 27.87158203 124.81445312 C32.05766567 126.40081352 35.67170563 128.54833976 39.4375 130.9375 C40.77845964 131.73906165 42.12231969 132.53578716 43.46875 133.328125 C44.53222656 133.95750977 44.53222656 133.95750977 45.6171875 134.59960938 C50.53967096 137.49257711 55.49043858 140.33684231 60.4375 143.1875 C62.09724854 144.14450806 62.09724854 144.14450806 63.79052734 145.12084961 C69.38056743 148.34271322 74.97357444 151.5593173 80.5703125 154.76953125 C85.95266712 157.85882604 91.32572044 160.96374136 96.69189453 164.08105469 C98.97184035 165.40359153 101.25364958 166.72227577 103.53857422 168.03613281 C107.03583614 170.0486758 110.51816945 172.08587529 114 174.125 C115.07515869 174.74052734 116.15031738 175.35605469 117.25805664 175.99023438 C118.24539795 176.57353516 119.23273926 177.15683594 120.25 177.7578125 C121.12140625 178.2645752 121.9928125 178.77133789 122.890625 179.29345703 C125.47852766 181.38714217 125.99029174 182.84652308 127 186 C127.24609566 188.77043629 127.24609566 188.77043629 127.24050903 191.84028625 C127.24463303 193.59232613 127.24463303 193.59232613 127.24884033 195.37976074 C127.24164978 196.65218628 127.23445923 197.92461182 127.22705078 199.2355957 C127.22648633 200.59592175 127.2268039 201.9562484 127.22793579 203.3165741 C127.22850897 207.00216448 127.21676038 210.68762435 127.20278788 214.37318444 C127.19027466 218.2275579 127.18910955 222.08193444 127.18673706 225.93632507 C127.18052403 233.23187664 127.16411561 240.52736817 127.14403808 247.82289332 C127.12167358 256.12997699 127.11068426 264.43706355 127.10064721 272.74416983 C127.07974922 289.82948126 127.04457668 306.91473428 127 324 C127.93116638 324.29881073 128.86233276 324.59762146 129.82171631 324.90548706 C133.10859695 326.03739779 135.78723345 327.47307402 138.765625 329.2578125 C140.34730469 330.19560547 140.34730469 330.19560547 141.9609375 331.15234375 C143.04632813 331.80332031 144.13171875 332.45429688 145.25 333.125 C147.41954605 334.423171 149.5913088 335.71764699 151.765625 337.0078125 C152.72243164 337.58160645 153.67923828 338.15540039 154.66503906 338.74658203 C156.85200774 340.15765591 156.85200774 340.15765591 159 340 C159.34256836 339.37955811 159.68513672 338.75911621 160.03808594 338.11987305 C161.59960807 335.30391408 163.17461087 332.49572273 164.75 329.6875 C165.28882813 328.71103516 165.82765625 327.73457031 166.3828125 326.72851562 C167.17558594 325.32182617 167.17558594 325.32182617 167.984375 323.88671875 C168.46616211 323.02264404 168.94794922 322.15856934 169.44433594 321.26831055 C171.09326203 318.86401482 172.51287733 317.50455939 175 316 C178.4375 315.5 178.4375 315.5 182 316 C187.13623185 320.12093021 189.82776412 325.60182449 192.9375 331.3125 C194.08178526 333.37585928 195.2276735 335.43833024 196.375 337.5 C197.26251953 339.09908203 197.26251953 339.09908203 198.16796875 340.73046875 C201.19294301 346.12898358 204.31238808 351.47151396 207.4375 356.8125 C208.0039624 357.78292236 208.5704248 358.75334473 209.15405273 359.75317383 C209.70005127 360.68669678 210.2460498 361.62021973 210.80859375 362.58203125 C211.33525635 363.48300537 211.86191895 364.38397949 212.40454102 365.31225586 C213.49063984 367.14192104 214.59615586 368.96016749 215.71850586 370.76782227 C216.53460327 372.08544556 216.53460327 372.08544556 217.3671875 373.4296875 C217.85687012 374.20683105 218.34655273 374.98397461 218.85107422 375.78466797 C220.8020398 379.54647454 220.77733836 381.83063969 220 386 C217.38025066 389.36726994 215.90115391 390.83045916 211.66101074 391.62818909 C209.75503113 391.62963173 209.75503113 391.62963173 207.81054688 391.63110352 C206.75348289 391.64183647 206.75348289 391.64183647 205.67506409 391.65278625 C203.35562451 391.66963574 201.03812827 391.6502958 198.71875 391.62890625 C197.10119467 391.62973531 195.48363942 391.63219609 193.86608887 391.63621521 C190.47996591 391.63907061 187.09450535 391.62439813 183.70849609 391.59692383 C179.37383835 391.56284073 175.04036476 391.56886128 170.70565033 391.5875864 C167.36666033 391.59816836 164.02794462 391.58920787 160.6889801 391.57420158 C159.09103714 391.56902804 157.49306544 391.56949153 155.89512634 391.57574654 C153.65927813 391.58121355 151.42510975 391.56077975 149.18945312 391.53344727 C147.91880005 391.52724869 146.64814697 391.52105011 145.33898926 391.5146637 C141.41320573 390.90955296 139.7670373 389.80323147 137 387 C135.79153448 384.011865 135.4984182 383.06261566 136 380 C137.78548084 375.80068785 140.07776347 371.96151082 142.4375 368.0625 C143.06205078 366.99708984 143.68660156 365.93167969 144.33007812 364.83398438 C145.87019712 362.21225509 147.42695073 359.60205788 149 357 C142.5478997 352.60354123 135.98095234 348.45599481 129.25 344.5 C128.33089844 343.93796875 127.41179687 343.3759375 126.46484375 342.796875 C125.57410156 342.27609375 124.68335938 341.7553125 123.765625 341.21875 C122.96930664 340.74373047 122.17298828 340.26871094 121.35253906 339.77929688 C118.97296537 338.74501582 118.97296537 338.74501582 116.42602539 339.74316406 C115.62543701 340.15791992 114.82484863 340.57267578 114 341 C113.39309326 341.30454102 112.78618652 341.60908203 112.16088867 341.92285156 C111.5857251 342.2422168 111.01056152 342.56158203 110.41796875 342.890625 C109.74636719 343.26276123 109.07476562 343.63489746 108.3828125 344.01831055 C107.65835937 344.42476807 106.93390625 344.83122559 106.1875 345.25 C105.40761719 345.68546143 104.62773437 346.12092285 103.82421875 346.56958008 C95.26646158 351.37245415 86.80382282 356.33793988 78.3359375 361.296875 C68.68664876 366.94480182 58.99251288 372.51509624 49.30419922 378.09570312 C44.86328771 380.65511717 40.42490045 383.21889001 35.98681641 385.78320312 C33.80658258 387.04158879 31.62528514 388.29813367 29.44287109 389.55273438 C24.24613292 392.5404421 19.06378465 395.54781357 13.91015625 398.609375 C12.47506714 399.45302612 12.47506714 399.45302612 11.01098633 400.3137207 C9.22467291 401.3642796 7.44410589 402.42469789 5.6706543 403.49682617 C-2.00721635 407.9838327 -2.00721635 407.9838327 -7 407 C-9.76600759 405.8499272 -12.29875221 404.39756534 -14.875 402.875 C-15.65182129 402.42979004 -16.42864258 401.98458008 -17.22900391 401.52587891 C-19.82763587 400.03111767 -22.41420565 398.51684879 -25 397 C-26.8434779 395.92661587 -28.68723476 394.85371074 -30.53125 393.78125 C-33.49268852 392.05654431 -36.45267876 390.32949262 -39.40966797 388.59716797 C-47.24210746 384.00971909 -55.11314137 379.49286703 -63 375 C-71.77423462 369.99952968 -80.52830614 364.96678536 -89.25 359.875 C-90.21075439 359.31683594 -91.17150879 358.75867188 -92.16137695 358.18359375 C-97.35896646 355.15738146 -102.52032414 352.08158809 -107.65234375 348.9453125 C-108.74579102 348.28547363 -109.83923828 347.62563477 -110.96582031 346.94580078 C-113.06935803 345.67532521 -115.16426524 344.39041748 -117.24902344 343.08935547 C-118.66296387 342.24074951 -118.66296387 342.24074951 -120.10546875 341.375 C-120.93199951 340.86710937 -121.75853027 340.35921875 -122.61010742 339.8359375 C-124.98537292 338.75534996 -124.98537292 338.75534996 -127.41992188 339.63427734 C-130.37295576 341.1974181 -133.2867335 342.79721454 -136.17578125 344.4765625 C-136.74580368 344.80667328 -137.31582611 345.13678406 -137.90312195 345.47689819 C-139.70808352 346.52314007 -141.51031402 347.57398575 -143.3125 348.625 C-144.54213964 349.33884848 -145.77195562 350.05239331 -147.00195312 350.765625 C-150.00334992 352.50690874 -153.00231667 354.25232936 -156 356 C-156 359.39242862 -155.36725465 360.39979035 -153.62890625 363.23828125 C-153.13712891 364.05876953 -152.64535156 364.87925781 -152.13867188 365.72460938 C-151.09415274 367.43958812 -150.04730415 369.15315041 -148.99804688 370.86523438 C-144.14521367 378.978664 -144.14521367 378.978664 -144 384 C-145.60411848 387.52906067 -146.74159362 388.82772908 -150 391 C-153.09848022 391.26742554 -153.09848022 391.26742554 -156.96240234 391.29052734 C-157.66681961 391.29724457 -158.37123688 391.30396179 -159.09700012 391.31088257 C-161.42671759 391.3298871 -163.75614733 391.33378803 -166.0859375 391.3359375 C-167.7063509 391.34236404 -169.32676313 391.3490923 -170.94717407 391.35610962 C-174.34501841 391.36808873 -177.74276103 391.37178983 -181.140625 391.37060547 C-185.4909279 391.37040231 -189.84057727 391.39769769 -194.19072533 391.43214989 C-197.5382282 391.45440783 -200.88557356 391.45844335 -204.23314285 391.45738602 C-205.83669918 391.45974391 -207.44025972 391.46857811 -209.04374313 391.48405075 C-211.28922772 391.50368821 -213.53330038 391.49788284 -215.77880859 391.48583984 C-217.69383682 391.4901149 -217.69383682 391.4901149 -219.64755249 391.49447632 C-223.5706487 390.91583097 -225.2234592 389.77726968 -228 387 C-229.40465374 383.0451639 -228.51944586 379.21870884 -226.90966797 375.44189453 C-225.35159185 372.57690902 -223.67482063 369.82244984 -221.9375 367.0625 C-220.65373904 364.94734782 -219.3712321 362.83143413 -218.08984375 360.71484375 C-217.41937012 359.62026855 -216.74889648 358.52569336 -216.05810547 357.39794922 C-212.60555335 351.697757 -209.30994001 345.90876781 -206 340.125 C-204.22627939 337.03569377 -202.4494492 333.94847875 -200.66015625 330.86816406 C-199.55032689 328.95077063 -198.45399396 327.02550361 -197.37109375 325.09277344 C-196.85675781 324.19333008 -196.34242188 323.29388672 -195.8125 322.3671875 C-195.36519531 321.5716748 -194.91789062 320.77616211 -194.45703125 319.95654297 C-192.79390398 317.72324841 -191.61231787 316.91968074 -189 316 C-185.468293 316.12613239 -182.97425373 316.24587054 -180.1328125 318.4453125 C-176.34299339 322.98476615 -173.73803921 328.27859469 -170.890625 333.44140625 C-170.18292969 334.70017578 -170.18292969 334.70017578 -169.4609375 335.984375 C-169.03603027 336.75491211 -168.61112305 337.52544922 -168.17333984 338.31933594 C-167.7861377 338.87395508 -167.39893555 339.42857422 -167 340 C-164.50791264 340 -163.38958521 339.23900234 -161.21875 338.0234375 C-160.46335937 337.60239746 -159.70796875 337.18135742 -158.9296875 336.74755859 C-158.12789063 336.29461426 -157.32609375 335.84166992 -156.5 335.375 C-155.28183594 334.6936499 -155.28183594 334.6936499 -154.0390625 333.99853516 C-148.87287554 331.09668134 -143.76765418 328.11439377 -138.75 324.9609375 C-137 324 -137 324 -135 324 C-135.00276538 323.2943157 -135.00553076 322.5886314 -135.00837994 321.86156273 C-135.07465354 304.68505618 -135.12428727 287.50858214 -135.15543652 270.33197594 C-135.17090072 262.02546978 -135.19198167 253.71904901 -135.22631836 245.41259766 C-135.25623443 238.17209078 -135.27557826 230.93164575 -135.28226548 223.69107878 C-135.28617402 219.85778054 -135.2953502 216.0246592 -135.31719017 212.19141769 C-135.33759029 208.58156116 -135.34382674 204.971954 -135.33932304 201.36204529 C-135.34053865 199.40939144 -135.35666235 197.45676459 -135.3732605 195.50418091 C-135.33501046 184.65798417 -135.33501046 184.65798417 -132 180 C-129.4699707 178.07226562 -129.4699707 178.07226562 -126.42578125 176.40625 C-125.29575684 175.77581787 -124.16573242 175.14538574 -123.00146484 174.49584961 C-121.77185083 173.83049075 -120.54219481 173.16520951 -119.3125 172.5 C-118.04014859 171.79555798 -116.7688386 171.08923192 -115.49853516 170.38110352 C-112.90949887 168.93867022 -110.31701144 167.50275741 -107.72216797 166.07080078 C-102.38763606 163.11580877 -97.13134812 160.02881865 -91.875 156.9375 C-83.64100838 152.1178529 -75.39073233 147.32750971 -67.125 142.5625 C-66.05258057 141.94415283 -64.98016113 141.32580566 -63.87524414 140.6887207 C-58.28707093 137.46781494 -52.696881 134.25043538 -47.10546875 131.03515625 C-45.96770996 130.38023193 -44.82995117 129.72530762 -43.65771484 129.05053711 C-41.51939681 127.81970115 -39.38045964 126.58993979 -37.24072266 125.36157227 C-35.23273434 124.20540336 -33.23595693 123.02955037 -31.25073242 121.8347168 C-28.81385822 120.45934244 -26.49712748 119.31729664 -23.9465332 118.20629883 C-16.79539406 115.04097772 -16.79539406 115.04097772 -12.19552612 109.06420898 C-10.97112759 103.55780911 -11.29124206 98.03239961 -11.5625 92.4375 C-11.5895624 90.74423661 -11.60980548 89.05084975 -11.62304688 87.35742188 C-11.67002956 83.23266151 -11.80942073 79.12052099 -12 75 C-12.79172607 75.01571045 -13.58345215 75.0314209 -14.39916992 75.04760742 C-17.99520695 75.11006699 -21.5911297 75.14902635 -25.1875 75.1875 C-27.05631836 75.22520508 -27.05631836 75.22520508 -28.96289062 75.26367188 C-30.16494141 75.27333984 -31.36699219 75.28300781 -32.60546875 75.29296875 C-34.26292114 75.31653442 -34.26292114 75.31653442 -35.95385742 75.34057617 C-39.41581935 74.95350902 -41.22877938 74.07864349 -44 72 C-46.43731859 68.34402212 -46.59649547 67.33192612 -46 63 C-44.39344741 59.38408114 -42.39221193 56.02495037 -40.375 52.625 C-39.79395508 51.62275391 -39.21291016 50.62050781 -38.61425781 49.58789062 C-37.38171704 47.46573108 -36.14328222 45.34698541 -34.89941406 43.23144531 C-33.03218316 40.05475275 -31.18169553 36.86889581 -29.3359375 33.6796875 C-26.43473885 28.67348972 -23.51502312 23.67854964 -20.58203125 18.69091797 C-19.56705871 16.96452486 -18.55387747 15.23707665 -17.54296875 13.50830078 C-16.28405849 11.35645309 -15.01849977 9.20870445 -13.75 7.0625 C-13.39131836 6.44761719 -13.03263672 5.83273438 -12.66308594 5.19921875 C-9.59492967 0.0483436 -6.01591638 -1.45249152 0 0 Z M-5 26 C-7.06306376 29.64551459 -9.12534659 33.29147039 -11.1875 36.9375 C-12.0547168 38.46987305 -12.0547168 38.46987305 -12.93945312 40.03320312 C-13.79506836 41.54624023 -13.79506836 41.54624023 -14.66796875 43.08984375 C-15.18641357 44.00628662 -15.7048584 44.92272949 -16.23901367 45.86694336 C-18.50753473 49.90297978 -20.75153209 53.95275776 -23 58 C-10.46 58 2.08 58 15 58 C11.04 51.07 11.04 51.07 7 44 C5.15975981 40.71178135 3.32357748 37.42234921 1.5 34.125 C1.05914062 33.32964844 0.61828125 32.53429688 0.1640625 31.71484375 C-0.89144119 29.81034795 -1.94585047 27.90524567 -3 26 C-3.66 26 -4.32 26 -5 26 Z M-13.125 131.0625 C-14.65929345 131.98841039 -16.19451058 132.91279128 -17.73046875 133.8359375 C-18.5714209 134.34350586 -19.41237305 134.85107422 -20.27880859 135.37402344 C-25.2966005 138.3722734 -30.37009398 141.27417636 -35.4375 144.1875 C-37.68625764 145.48296926 -39.93495475 146.77854358 -42.18359375 148.07421875 C-43.31265137 148.72438965 -44.44170898 149.37456055 -45.60498047 150.04443359 C-51.07169974 153.1933205 -56.53578353 156.34677268 -62 159.5 C-68.6040812 163.31100738 -75.20884972 167.12080186 -81.81640625 170.92578125 C-82.94626953 171.57675781 -84.07613281 172.22773438 -85.24023438 172.8984375 C-87.35445854 174.11650904 -89.46900619 175.3340194 -91.58398438 176.55078125 C-93.54684921 177.68196727 -95.49404015 178.84087267 -97.42300415 180.02894592 C-99.97014678 181.52656698 -102.46996413 182.5600515 -105.25900269 183.52732849 C-110.29258813 185.49215242 -114.60965615 187.68363485 -118 192 C-121.17242872 200.4934945 -120.58563386 210.05727615 -120.51405454 219.00560856 C-120.50041102 221.87595871 -120.53844599 224.74474662 -120.57559246 227.61481738 C-120.6618709 234.39602315 -120.65936903 241.17320378 -120.60083008 247.95458984 C-120.54227331 254.91812169 -120.63350599 261.8682446 -120.79929978 268.82974839 C-120.93695844 274.83611821 -120.98002948 280.8382847 -120.94951957 286.8461473 C-120.93226917 290.4225047 -120.9488486 293.98981212 -121.05713081 297.56476593 C-121.87524137 312.59718248 -121.87524137 312.59718248 -115.61823273 325.55443001 C-109.8296901 330.0270093 -103.52297852 333.07121659 -96.77852821 335.83210182 C-93.25789245 337.31192991 -90.13313188 339.12370746 -86.8828125 341.12109375 C-84.96389348 342.22717308 -83.04463128 343.33265727 -81.125 344.4375 C-78.94009462 345.69659802 -76.75519908 346.95571311 -74.5703125 348.21484375 C-72.94270996 349.15239502 -72.94270996 349.15239502 -71.28222656 350.10888672 C-64.78152037 353.85438435 -58.28374968 357.60497265 -51.78564453 361.35498047 C-46.76346298 364.25294889 -41.74072934 367.14994287 -36.71557617 370.04275513 C-34.94954478 371.05947198 -33.18372569 372.07655658 -31.41796875 373.09375 C-29.21265845 374.36400873 -27.00695784 375.63359018 -24.80078125 376.90234375 C-23.29064453 377.77246094 -23.29064453 377.77246094 -21.75 378.66015625 C-20.29980469 379.48990967 -20.29980469 379.48990967 -18.8203125 380.33642578 C-16.93512845 381.44841021 -15.07494668 382.60387245 -13.2421875 383.80029297 C-8.40501522 387.0409236 -8.40501522 387.0409236 -2.828125 388.1328125 C0.75247993 386.69859229 3.98541461 384.90556336 7.25 382.875 C8.76603157 381.95815302 10.28302258 381.04289132 11.80078125 380.12890625 C12.62916504 379.62762207 13.45754883 379.12633789 14.31103516 378.60986328 C19.31598263 375.6134384 24.38025828 372.71947188 29.4375 369.8125 C31.68626842 368.51704947 33.93496541 367.22147492 36.18359375 365.92578125 C37.87718018 364.9505249 37.87718018 364.9505249 39.60498047 363.95556641 C46.14678438 360.18741961 52.68512132 356.41326041 59.22363281 352.6394043 C64.77572939 349.43533648 70.3296392 346.23448128 75.88671875 343.0390625 C77.02560547 342.38357422 78.16449219 341.72808594 79.33789062 341.05273438 C81.47787488 339.8211516 83.61844226 338.59058114 85.75976562 337.36132812 C87.71787911 336.23385224 89.65960743 335.07728002 91.58108521 333.88844299 C94.15181001 332.46849908 96.11538365 331.58534221 98.83895874 330.71482849 C103.42066367 329.02517188 107.14885893 327.07543448 110 323 C112.67614234 314.28420043 111.79360159 304.66144105 111.52090907 295.63474345 C111.42667686 291.98766803 111.41829374 288.34038088 111.40052795 284.692276 C111.35403377 277.79536153 111.23114215 270.9020439 111.08028561 264.00670868 C110.91220298 256.15226257 110.8300498 248.29763793 110.75485408 240.4418391 C110.59835987 224.29245872 110.33479941 208.14668931 110 192 C108.92069214 191.37732239 108.92069214 191.37732239 107.81958008 190.74206543 C89.04638672 179.91137695 70.27319336 169.08068848 51.5 158.25 C50.4260498 157.63044434 49.35209961 157.01088867 48.24560547 156.37255859 C46.0934787 155.13088473 43.94145927 153.88902478 41.78955078 152.64697266 C36.74969023 149.73833177 31.70882508 146.83148102 26.66400146 143.93145752 C24.88250422 142.90724335 23.10135678 141.88242349 21.3203125 140.85742188 C19.08923375 139.57366625 16.85750427 138.29104061 14.625 137.00976562 C9.55590127 134.09148677 4.55578184 131.15093726 -0.27685547 127.85205078 C-5.2545628 125.39070216 -8.99258609 128.50461982 -13.125 131.0625 Z M-187 342 C-189.08357088 345.59162466 -191.16478238 349.18460303 -193.24389648 352.77880859 C-193.95029365 353.99922791 -194.65731422 355.21928663 -195.36499023 356.43896484 C-196.38693008 358.20053276 -197.40655925 359.96342101 -198.42578125 361.7265625 C-199.03848877 362.78439941 -199.65119629 363.84223633 -200.2824707 364.93212891 C-201.94688917 367.9051328 -203.47625192 370.95250385 -205 374 C-192.79 374 -180.58 374 -168 374 C-171.71569933 366.56860134 -175.5221157 359.49114684 -179.75 352.375 C-180.33910156 351.37082031 -180.92820312 350.36664063 -181.53515625 349.33203125 C-182.09589844 348.38457031 -182.65664062 347.43710937 -183.234375 346.4609375 C-183.74194336 345.60290527 -184.24951172 344.74487305 -184.77246094 343.86083984 C-185.17754883 343.2467627 -185.58263672 342.63268555 -186 342 C-186.33 342 -186.66 342 -187 342 Z M178 342 C175.18022739 346.23334008 172.6157703 350.63798461 170 355 C169.55253418 355.74314453 169.10506836 356.48628906 168.64404297 357.25195312 C167.25678788 359.56033008 165.87711811 361.87306346 164.5 364.1875 C164.05470947 364.92991943 163.60941895 365.67233887 163.15063477 366.43725586 C160.82836458 369.97592475 160.82836458 369.97592475 160 374 C172.21 374 184.42 374 197 374 C190.45765656 361.67319125 190.45765656 361.67319125 183.5625 349.5625 C183.13001953 348.81935547 182.69753906 348.07621094 182.25195312 347.31054688 C181.19859055 345.52197349 180.10379585 343.75789709 179 342 C178.67 342 178.34 342 178 342 Z " fill="#000000" transform="translate(260,24)"/>
<path d="M0 0 C4.07871112 1.97126163 7.93077466 4.29411305 11.8125 6.625 C12.96477605 7.3052554 14.11778589 7.9842692 15.27148438 8.66210938 C17.66513744 10.06976203 20.05556108 11.48267699 22.44384766 12.89941406 C27.93346368 16.14985197 33.46912322 19.32048302 39 22.5 C41.15253344 23.74185877 43.30487635 24.98404784 45.45703125 26.2265625 C49.93155169 28.80824969 54.40840857 31.38583014 58.88671875 33.9609375 C60.01762939 34.61199463 61.14854004 35.26305176 62.3137207 35.93383789 C64.53371445 37.21114958 66.75487597 38.48643415 68.97729492 39.75952148 C73.63251838 42.43495786 78.25928619 45.12798749 82.7890625 48.01171875 C83.48298096 48.4495166 84.17689941 48.88731445 84.8918457 49.33837891 C86.65304968 50.460875 88.39958873 51.60629458 90.14453125 52.75390625 C92.88809827 54.32513275 92.88809827 54.32513275 95.38623047 53.23706055 C97.87755567 52.05795119 100.27856242 50.81283717 102.67578125 49.453125 C103.57337158 48.94539551 104.47096191 48.43766602 105.39575195 47.91455078 C106.35827881 47.36524902 107.32080566 46.81594727 108.3125 46.25 C109.32723389 45.67362793 110.34196777 45.09725586 111.38745117 44.50341797 C119.55403478 39.85276682 127.67818044 35.13061972 135.78857422 30.3828125 C144.41519063 25.33281332 153.06893742 20.33090856 161.73876953 15.35546875 C166.57965881 12.57285823 171.40452914 9.7743337 176.171875 6.8671875 C176.94474854 6.39893555 177.71762207 5.93068359 178.51391602 5.44824219 C179.90346775 4.60230594 181.28741236 3.74704409 182.66381836 2.87988281 C186.76801838 0.3877566 190.19744096 -0.76132737 195 -1 C197.94755732 0.34562399 199.54277272 1.08554544 201 4 C201.65547703 9.71201413 201.65547703 9.71201413 201 12 C195.94529008 17.14082082 189.4803139 20.35431966 183.25 23.875 C181.49993101 24.87405513 179.74986705 25.87311921 178.00012207 26.8727417 C176.19183576 27.90488121 174.38215381 28.93453968 172.57226562 29.96386719 C167.03343785 33.11697473 161.51801969 36.31067043 156 39.5 C153.85167672 40.73978128 151.70323863 41.97936362 149.5546875 43.21875 C148.48444336 43.83621094 147.41419922 44.45367187 146.31152344 45.08984375 C143.46360809 46.73258112 140.61546232 48.37491736 137.76715088 50.01696777 C136.01658759 51.02619104 134.26609589 52.03553836 132.515625 53.04492188 C130.33607835 54.3016766 128.15640168 55.55820586 125.9765625 56.81445312 C124.97625 57.39130859 123.9759375 57.96816406 122.9453125 58.5625 C121.97368164 59.12195313 121.00205078 59.68140625 120.00097656 60.2578125 C117.87646335 61.4911778 115.75930869 62.73725904 113.64746094 63.9921875 C112.02372559 64.95511719 112.02372559 64.95511719 110.3671875 65.9375 C109.3860498 66.52402344 108.40491211 67.11054688 107.39404297 67.71484375 C105 69 105 69 103 69 C103.00276538 69.56653353 103.00553076 70.13306705 103.00837994 70.71676826 C103.07468592 84.51345824 103.12411138 98.31012023 103.15543652 112.1069355 C103.17109437 118.77904047 103.19233514 125.45100812 103.22631836 132.12304688 C103.258907 138.56155401 103.27685212 144.99995053 103.28463173 151.43853378 C103.29017608 153.89533098 103.30100274 156.3521221 103.31719017 158.80887222 C103.33895732 162.24917958 103.34196715 165.68902943 103.34057617 169.12939453 C103.351362 170.14575485 103.36214783 171.16211517 103.3732605 172.20927429 C103.34991567 177.54292677 103.07939533 181.42407966 100 186 C96.87057535 187.56471233 93.38917777 187.69701958 90 187 C87.87695312 185.63421631 87.87695312 185.63421631 86 183 C85.50671447 179.46632075 85.72708148 175.98224994 85.8984375 172.42675781 C85.97024365 170.19404473 86.04159245 167.96131691 86.11254883 165.72857666 C86.1571524 164.54401131 86.20175598 163.35944595 86.24771118 162.13898468 C86.46495838 155.84823038 86.55202514 149.55512593 86.66015625 143.26171875 C86.80341082 135.25858342 86.98478631 127.26374888 87.31982422 119.26611328 C90.15243607 91.50342443 90.15243607 91.50342443 82.36431885 66.08499146 C76.36152486 60.07183242 68.69663815 57.45466988 60.65083313 55.18711853 C54.51340001 53.19144787 49.34499764 49.82167886 43.875 46.4375 C41.74454736 45.19811087 39.61085494 43.96425851 37.47265625 42.73828125 C36.41449707 42.12678223 35.35633789 41.5152832 34.26611328 40.88525391 C30.88638912 38.93442194 27.5040644 36.98816494 24.12109375 35.04296875 C18.68571383 31.91703546 13.25521549 28.78283663 7.83007812 25.63916016 C6.04092068 24.6028935 4.25069246 23.56847143 2.45898438 22.53662109 C0.32174499 21.30370225 -1.80899555 20.06041877 -3.9375 18.8125 C-5.06027344 18.15894531 -6.18304688 17.50539062 -7.33984375 16.83203125 C-9.92307347 15.05297877 -11.43517044 13.69853261 -13 11 C-13.4375 7.5 -13.4375 7.5 -13 4 C-9.15693185 -0.86788633 -5.85629203 -1.75650071 0 0 Z " fill="#000000" transform="translate(162,217)"/>
<path d="M0 0 C2.59765625 1.71484375 2.59765625 1.71484375 5.0625 3.9375 C37.07701854 31.39710737 79.75972189 47.73663668 122 49 C123.12535156 49.03996094 124.25070313 49.07992187 125.41015625 49.12109375 C171.0575582 49.95104651 215.63374901 33.11361366 250.52734375 3.8828125 C256.22124708 -0.83526381 256.22124708 -0.83526381 260.25 -1.6875 C263.82912179 -0.79271955 265.52740784 0.24482588 268 3 C269.05177813 6.61548731 269.50583517 8.83404017 267.98828125 12.33203125 C265.22888365 16.03471997 261.87699591 18.51121661 258.1875 21.25 C257.04462524 22.10815308 257.04462524 22.10815308 255.87866211 22.98364258 C249.12781487 28.00151641 242.22921531 32.69797479 235 37 C234.32388672 37.4031543 233.64777344 37.80630859 232.95117188 38.22167969 C204.21261689 55.17039231 171.54942595 66.04736198 138 67 C137.36030273 67.02046387 136.72060547 67.04092773 136.06152344 67.06201172 C82.22290486 68.57630108 29.88141981 49.76191311 -10.609375 14.375 C-12.903354 12.10679604 -13.00569418 10.92312853 -13.25 7.625 C-12.99015512 3.85724926 -12.67186361 2.5729057 -10 0 C-6.18426986 -1.27191005 -3.91279888 -0.87185077 0 0 Z " fill="#000000" transform="translate(128,421)"/>
<path d="M0 0 C2.339794 0.81123206 4.60874573 1.71894739 6.88793945 2.6875 C7.73759277 3.0395752 8.58724609 3.39165039 9.46264648 3.75439453 C25.54202451 10.59053728 41.01709329 18.6025389 54.76293945 29.4375 C55.69750977 30.16324219 56.63208008 30.88898438 57.5949707 31.63671875 C98.22553499 64.01329144 126.23628693 111.04525099 134.76293945 162.4375 C134.87863281 163.10136719 134.99432617 163.76523438 135.11352539 164.44921875 C139.24248468 189.0024366 139.20362547 218.76572855 130.76293945 242.4375 C128.51293945 245.1875 128.51293945 245.1875 125.76293945 246.4375 C121.64740701 246.50970232 119.56056691 246.03572059 116.26293945 243.5625 C114.62791363 240.15619621 114.67943078 239.01607358 115.0715332 235.3671875 C115.17643066 234.3860498 115.28132812 233.40491211 115.3894043 232.39404297 C115.82793426 228.92306399 116.35882305 225.47463303 116.91870117 222.02148438 C124.53741015 173.62027438 111.63622294 124.3009513 83.37915039 84.48779297 C77.09863182 75.95530453 70.06491275 68.10019952 62.76293945 60.4375 C62.0255957 59.64730469 61.28825195 58.85710937 60.52856445 58.04296875 C42.56091126 39.32119873 18.41238588 25.70297352 -6.06201172 17.51416016 C-9.99867912 16.1445737 -12.68966563 14.78370765 -15.23706055 11.4375 C-16.2582186 7.59314028 -15.76448814 4.35476538 -13.79956055 0.9375 C-9.51254285 -1.57197377 -4.75435327 -1.19546327 0 0 Z " fill="#000000" transform="translate(326.237060546875,85.5625)"/>
<path d="M0 0 C2.14291019 3.21436529 2.30025791 5.17426609 2.4609375 8.96484375 C1.76346001 12.04438421 0.48163265 13.04876309 -2 15 C-4.74165997 16.37271922 -7.57926569 17.45785151 -10.4375 18.5625 C-57.20379839 37.55140924 -94.62978009 71.44878963 -115 118 C-128.87656424 151.13309919 -135.32972053 188.38375761 -129.06738281 224.0246582 C-126.53889559 238.50340064 -126.53889559 238.50340064 -129.30664062 243.23266602 C-131 245 -131 245 -134.375 245.9375 C-138.55714908 246.00960602 -139.96292792 245.86834586 -143 243 C-159.13092068 207.13100508 -148.34192693 155.10240592 -135.29296875 119.80859375 C-115.06736926 67.39906439 -75.4531938 27.25214236 -24.25 4.4375 C-7.05339504 -3.16683042 -7.05339504 -3.16683042 0 0 Z " fill="#000000" transform="translate(198,86)"/>
<path d="M0 0 C2.9375 2.0625 2.9375 2.0625 5 5 C6.11337036 12.02419024 2.84694451 16.63643262 -0.625 22.4375 C-1.21112061 23.44466064 -1.79724121 24.45182129 -2.40112305 25.48950195 C-4.25406699 28.66770096 -6.12662341 31.83381243 -8 35 C-9.14108266 36.95209742 -10.28044879 38.90519939 -11.41796875 40.859375 C-13.12750101 43.79589035 -14.83831106 46.73158274 -16.55517578 49.66381836 C-20.74567715 56.82244758 -24.87861296 64.01260596 -28.98526001 71.21951294 C-34.50805926 80.90994862 -40.0408266 90.59478405 -45.625 100.25 C-46.18058594 101.219375 -46.73617188 102.18875 -47.30859375 103.1875 C-55.86949627 117.93474813 -55.86949627 117.93474813 -60 120 C-64.0130324 120.53507099 -65.53928033 120.33051628 -68.875 117.9375 C-71.5874744 114.18790304 -71.4683401 112.57099939 -71 108 C-69.91138276 105.17808271 -68.42490079 102.65422446 -66.875 100.0625 C-66.43051514 99.29164063 -65.98603027 98.52078125 -65.52807617 97.7265625 C-64.0331316 95.14236748 -62.51677518 92.57143358 -61 90 C-59.9140698 88.13486784 -58.82946985 86.26896064 -57.74609375 84.40234375 C-55.40594401 80.37577578 -53.05734311 76.35429531 -50.703125 72.3359375 C-46.96365328 65.94717868 -43.25892831 59.53873743 -39.5625 53.125 C-38.94536133 52.05483643 -38.32822266 50.98467285 -37.69238281 49.88208008 C-34.79218634 44.85118082 -31.89506924 39.81853791 -29.00350952 34.78266907 C-8.53134017 -0.86759392 -8.53134017 -0.86759392 0 0 Z " fill="#000000" transform="translate(350,257)"/>
<path d="M0 0 C2.875 1.4375 2.875 1.4375 5 4 C6.75270485 11.63678543 3.38581963 16.50259607 -0.44580078 22.85864258 C-2.57240831 26.21106944 -4.4626741 29.00845676 -8 31 C-11.92596294 31.49074537 -14.0688869 31.63707739 -17.375 29.375 C-19.37812518 26.4473555 -19.73839273 24.53384243 -20 21 C-16.83533443 11.76459464 -11.08672124 -1.08693345 0 0 Z " fill="#000000" transform="translate(350,316)"/>
<path d="M0 0 C1.9375 0.34765625 1.9375 0.34765625 4.375 1.97265625 C6.29432277 4.89002686 6.67745939 6.86908023 6.9375 10.34765625 C5.8984375 13.05859375 5.8984375 13.05859375 4.3125 15.72265625 C3.75820313 16.66625 3.20390625 17.60984375 2.6328125 18.58203125 C2.07335937 19.4946875 1.51390625 20.40734375 0.9375 21.34765625 C0.46054687 22.1571875 -0.01640625 22.96671875 -0.5078125 23.80078125 C-3.74437661 29.18859455 -3.74437661 29.18859455 -6.0625 30.34765625 C-13.1146327 30.91637663 -13.1146327 30.91637663 -16.5625 28.84765625 C-18.64048987 25.38433981 -18.63534769 22.2477289 -18.0625 18.34765625 C-16.93650236 15.5254574 -15.41107237 13.07183266 -13.75 10.53515625 C-13.34587891 9.88095703 -12.94175781 9.22675781 -12.52539062 8.55273438 C-6.9675751 -0.29458498 -6.9675751 -0.29458498 0 0 Z " fill="#000000" transform="translate(297.0625,286.65234375)"/>
</svg>
