<?xml version="1.0" encoding="UTF-8"?>
<svg version="1.1" xmlns="http://www.w3.org/2000/svg" width="512" height="512">
<path d="M0 0 C0.64388672 0.32564941 1.28777344 0.65129883 1.95117188 0.98681641 C16.74178861 8.94505123 28.30993676 21.28706442 40.0390625 33.04296875 C41.80655322 34.80588981 43.57441262 36.56844131 45.34262085 38.3306427 C49.02364688 42.00278792 52.69901819 45.68047891 56.37060547 49.36206055 C60.13345925 53.13415947 63.90387478 56.89838288 67.68310547 60.65405273 C72.27193538 65.214623 76.85088267 69.78486993 81.42200851 74.36318398 C83.15804469 76.09937325 84.89717772 77.8324718 86.63948441 79.56236839 C89.06836256 81.97635743 91.48412838 84.40276246 93.89697266 86.83276367 C94.97224716 87.89353622 94.97224716 87.89353622 96.06924438 88.97573853 C100.90683248 93.88557526 103.98152645 98.03092303 104.71557617 105.08569336 C104.69986572 106.18018799 104.68415527 107.27468262 104.66796875 108.40234375 C104.65830078 109.59794922 104.64863281 110.79355469 104.63867188 112.02539062 C104.61353516 113.25451172 104.58839844 114.48363281 104.5625 115.75 C104.54896484 117.00619141 104.53542969 118.26238281 104.52148438 119.55664062 C104.48628591 122.64237279 104.43704305 125.72721024 104.375 128.8125 C105.14553711 128.80959961 105.91607422 128.80669922 106.70996094 128.80371094 C112.68849134 128.79073428 118.65195077 128.79649376 124.625 129.0625 C125.90890625 129.10890625 127.1928125 129.1553125 128.515625 129.203125 C137.92490448 130.68880071 143.39739226 136.26212249 149.8359375 142.8125 C150.70771637 143.68519531 151.57949524 144.55789062 152.47769165 145.45703125 C154.3093879 147.29474559 156.13624525 149.13729433 157.95849609 150.984375 C160.75122302 153.81373906 163.55974927 156.62664624 166.37109375 159.4375 C168.15199037 161.22822367 169.93197069 163.01985918 171.7109375 164.8125 C172.55046967 165.65425781 173.39000183 166.49601563 174.25497437 167.36328125 C175.02983185 168.15089844 175.80468933 168.93851563 176.60302734 169.75 C177.28505219 170.43964844 177.96707703 171.12929687 178.66976929 171.83984375 C181.9763206 175.66495026 182.68613971 178.66808158 182.75 183.6875 C182.77835937 184.69554687 182.80671875 185.70359375 182.8359375 186.7421875 C181.83263117 193.42522797 176.4083251 198.08455551 171.8215332 202.68823242 C171.17216293 203.3475325 170.52279266 204.00683258 169.85374451 204.68611145 C167.71663031 206.8522926 165.57193046 209.01074083 163.42578125 211.16796875 C161.92848173 212.67678292 160.43118254 214.18559742 158.93388367 215.69441223 C155.79808829 218.85117545 152.65769453 222.00328955 149.51489258 225.15307617 C145.49768909 229.18125757 141.49938171 233.22765962 137.5052309 237.27868176 C134.42085525 240.40037736 131.32307432 243.50850572 128.22151756 246.61312294 C126.74182641 248.09884983 125.26711776 249.58955695 123.79763222 251.08537865 C121.7375489 253.17973576 119.65917527 255.25416089 117.57543945 257.32495117 C116.9782309 257.94058929 116.38102234 258.55622742 115.76571655 259.19052124 C110.82041252 264.04065128 105.63240079 266.51830207 98.67114258 266.99934387 C90.82191003 265.54503099 86.47262234 260.99223337 81.0625 255.38671875 C80.11905611 254.43595105 79.17403873 253.48674241 78.22753906 252.53901672 C76.25874982 250.55951894 74.30377333 248.5676802 72.35888672 246.56469727 C69.87168028 244.00368618 67.36092706 241.46747705 64.84065247 238.939044 C62.89361236 236.9834037 60.95496985 235.01962264 59.01919556 233.05283546 C57.64878575 231.66087849 56.27498292 230.27226464 54.90112305 228.88371277 C54.07265869 228.02965347 53.24419434 227.17559418 52.390625 226.2956543 C51.66133789 225.54889938 50.93205078 224.80214447 50.18066406 224.03276062 C42.90288246 215.08393552 45.25326861 199.72019886 45.375 188.8125 C38.34549651 187.31947564 31.30688393 186.52667094 24.86042404 190.27436686 C18.54079859 195.07967164 13.07760362 200.84645234 7.59383845 206.56311655 C5.07073383 209.17284827 2.49497972 211.7297298 -0.0745697 214.29359436 C-4.51236548 218.73557885 -8.91635954 223.20889513 -13.29882812 227.70544815 C-19.6436371 234.21495527 -26.04015351 240.67163304 -32.45042443 247.1166098 C-42.8625852 257.58757821 -53.23542975 268.09658778 -63.58251953 278.63183594 C-73.60924395 288.84066899 -83.6490216 299.03629679 -93.71044922 309.2109375 C-94.33032223 309.83780115 -94.95019524 310.4646648 -95.58885229 311.11052431 C-102.36243841 317.95977551 -109.13954516 324.80553552 -115.9188385 331.6491375 C-117.71921191 333.46668624 -119.51958217 335.28423811 -121.31994569 337.10179664 C-122.50709904 338.30021898 -123.69431587 339.49857842 -124.88159716 340.69687401 C-131.85038209 347.73071622 -138.80837159 354.77487094 -145.74733621 361.83813922 C-150.10016864 366.26887259 -154.45919703 370.69343785 -158.82304972 375.11331768 C-161.81739771 378.1470542 -164.803097 381.1889446 -167.7820949 384.23775137 C-170.02416266 386.52689986 -172.27970737 388.80270621 -174.53320312 391.08059692 C-175.31278665 391.88410997 -176.09237017 392.68762301 -176.89557743 393.51548493 C-187.50949535 404.17415824 -199.64505208 409.83535793 -214.75 410.0625 C-229.16166678 409.91494027 -240.97581322 405.01597114 -251.37109375 395.125 C-262.14906938 384.06683436 -265.91751 371.68630996 -265.94189453 356.59228516 C-265.70712764 340.5093036 -258.21862292 328.73130903 -246.96229553 317.73606873 C-245.67335369 316.45258383 -245.67335369 316.45258383 -244.35837263 315.14316994 C-241.99417143 312.79279304 -239.6213803 310.45176274 -237.24446237 308.11429036 C-234.67470518 305.58261998 -232.11683183 303.03899307 -229.55764771 300.49664307 C-225.129009 296.0999116 -220.69364765 291.71006001 -216.25410652 287.32433891 C-209.2373292 280.39164941 -202.24035595 273.43915832 -195.24620056 266.48365784 C-192.84989085 264.10110481 -190.45342778 261.71870607 -188.05689907 259.33637333 C-187.45815809 258.74117565 -186.8594171 258.14597797 -186.24253245 257.532744 C-179.43968723 250.77082065 -172.63215611 244.01362248 -165.82299805 237.25805664 C-165.20109026 236.64103396 -164.57918247 236.02401128 -163.93842899 235.38829095 C-153.84283493 225.37284159 -143.73553572 215.36926372 -133.62570388 205.3681898 C-123.23722682 195.09051208 -112.86799546 184.79367503 -102.51477712 174.48048073 C-96.13182055 168.12367958 -89.73333625 161.78334713 -83.31401544 155.46326614 C-78.92082752 151.13543145 -74.54588488 146.78970807 -70.18493307 142.42939406 C-67.667934 139.91393021 -65.14342215 137.40742684 -62.59650612 134.92222786 C-59.83670694 132.22893582 -57.11640525 129.49786306 -54.39881897 126.76194763 C-53.18077649 125.5916905 -53.18077649 125.5916905 -51.9381271 124.3977918 C-47.98149721 120.49111417 -47.98149721 120.49111417 -46.34071815 115.36847508 C-47.88709089 99.59887949 -58.64175867 84.64094498 -70.23828125 74.53515625 C-84.05093914 63.66461359 -99.52997964 56.67916923 -115.96679688 50.74267578 C-123.33589673 48.01387703 -129.8197685 45.4472303 -134.0625 38.4375 C-135.6576359 30.99353245 -134.60948557 26.14885292 -130.625 19.8125 C-128.74755893 17.60483045 -126.67580365 15.77241427 -124.4375 13.9375 C-123.83019043 13.43138184 -123.22288086 12.92526367 -122.59716797 12.40380859 C-87.99744205 -15.57546863 -39.48276177 -20.3031275 0 0 Z M-82.625 26.8125 C-80.52984664 29.0782975 -78.54639877 30.54993625 -75.81640625 31.9765625 C-74.70458984 32.56932983 -74.70458984 32.56932983 -73.5703125 33.17407227 C-72.78398437 33.59100342 -71.99765625 34.00793457 -71.1875 34.4375 C-45.24249759 48.54535368 -25.4760369 69.0197519 -16.4375 97.5625 C-13.8562989 106.52078619 -13.8562989 106.52078619 -13.06665039 110.93066406 C-11.48766984 116.35730151 -7.46186396 120.12093842 -3.69921875 124.17578125 C-2.8920491 125.04988144 -2.08487946 125.92398163 -1.25325012 126.8245697 C1.36613536 129.61927152 4.01820769 132.37795317 6.6875 135.125 C7.58549316 136.05268188 8.48348633 136.98036377 9.40869141 137.93615723 C23.05126987 152.16033956 23.05126987 152.16033956 41.16479492 158.12963867 C45.72419313 158.04713328 50.14756705 157.60981541 54.6574707 156.95458984 C60.11965872 156.66899166 63.69604487 159.47690606 67.80078125 162.7421875 C68.42339844 163.38414062 69.04601562 164.02609375 69.6875 164.6875 C70.32300781 165.32429687 70.95851563 165.96109375 71.61328125 166.6171875 C75.26464335 171.16722187 76.73509563 175.33952706 77.03515625 181.12890625 C77.10669922 182.30517578 77.17824219 183.48144531 77.25195312 184.69335938 C77.31318359 185.90830078 77.37441406 187.12324219 77.4375 188.375 C77.56666804 190.79338386 77.70310937 193.21139284 77.84765625 195.62890625 C77.90187744 196.69568604 77.95609863 197.76246582 78.01196289 198.86157227 C78.70705019 204.51155225 80.69623752 207.50731277 84.7265625 211.45703125 C85.57734375 212.29814453 86.428125 213.13925781 87.3046875 214.00585938 C88.19414062 214.87017578 89.08359375 215.73449219 90 216.625 C90.8971875 217.50865234 91.794375 218.39230469 92.71875 219.30273438 C94.93088998 221.47957425 97.14973073 223.64909664 99.375 225.8125 C102.69113882 224.36669034 104.86685728 222.56420208 107.40917969 220.00537109 C108.18968689 219.22471283 108.97019409 218.44405457 109.77435303 217.63973999 C110.60678528 216.79698517 111.43921753 215.95423035 112.296875 215.0859375 C113.15686096 214.22312164 114.01684692 213.36030579 114.90289307 212.47134399 C117.6483231 209.71471971 120.3867169 206.95122201 123.125 204.1875 C124.98521783 202.31725143 126.84588946 200.44745411 128.70703125 198.578125 C133.26829945 193.9948064 137.82381011 189.40582522 142.375 184.8125 C139.83370171 179.47168871 135.8132287 175.80324394 131.6875 171.625 C130.89666016 170.79291016 130.10582031 169.96082031 129.29101562 169.10351562 C124.80279317 164.48191835 124.80279317 164.48191835 119.078125 161.8125 C117.85609375 161.8125 116.6340625 161.8125 115.375 161.8125 C113.39389784 161.69090359 111.41346141 161.55823812 109.43359375 161.41796875 C106.10521337 161.20509565 102.7780336 160.99821967 99.44726562 160.82617188 C90.49935415 160.22107672 85.98479753 157.70190203 79.625 151.375 C78.86703125 150.63378906 78.1090625 149.89257812 77.328125 149.12890625 C74.62483048 145.92279895 73.28149708 143.35385068 73.53961182 139.09895325 C73.69701843 138.11215073 73.85442505 137.12534821 74.01660156 136.10864258 C75.13713359 124.06462657 74.12348657 114.54130513 66.50307465 104.90644646 C57.67245987 94.54924908 47.6836914 85.25325845 37.75012207 75.97357178 C34.24674659 72.67244883 30.80593466 69.30995054 27.36642075 65.942523 C23.21732941 61.8823899 19.04272919 57.84901275 14.859375 53.82421875 C14.08031548 53.07425817 13.30125595 52.3242976 12.49858856 51.55161095 C-6.66751592 33.21484229 -26.43734183 20.25072711 -53.9296875 20.45458984 C-63.92637512 20.73917021 -73.40152652 22.93864114 -82.625 26.8125 Z M-29.39086914 147.46484375 C-30.13973389 148.21894531 -30.88859863 148.97304687 -31.66015625 149.75 C-32.46904297 150.56210938 -33.27792969 151.37421875 -34.11132812 152.2109375 C-34.96146484 153.06945312 -35.81160156 153.92796875 -36.6875 154.8125 C-37.54150391 155.67101562 -38.39550781 156.52953125 -39.27539062 157.4140625 C-41.3941638 159.5446724 -43.51057759 161.67757372 -45.625 163.8125 C-44.0402642 167.67578627 -41.56543113 170.10126923 -38.6171875 173.015625 C-38.13170441 173.4982782 -37.64622131 173.9809314 -37.14602661 174.47821045 C-35.60200134 176.01108562 -34.05115176 177.53684004 -32.5 179.0625 C-31.44875991 180.10370361 -30.39797343 181.14536541 -29.34765625 182.1875 C-26.77866996 184.73449464 -24.20351839 187.27515177 -21.625 189.8125 C-16.92158874 185.88961742 -12.48226049 181.80231304 -8.1875 177.4375 C-7.64673828 176.89222656 -7.10597656 176.34695312 -6.54882812 175.78515625 C-5.23853277 174.46326536 -3.93141716 173.13822382 -2.625 171.8125 C-4.20920237 167.9628265 -6.66781247 165.52591435 -9.59765625 162.609375 C-10.08076767 162.1267218 -10.56387909 161.6440686 -11.06163025 161.14678955 C-12.07884054 160.13258976 -13.09846961 159.12081081 -14.12036133 158.11132812 C-15.69089755 156.55914214 -17.25319038 154.99900796 -18.81445312 153.4375 C-23.62183176 147.03748996 -23.62183176 147.03748996 -29.39086914 147.46484375 Z M-74.93245548 192.98154998 C-75.85986745 193.91128485 -75.85986745 193.91128485 -76.80601501 194.85980225 C-77.45882669 195.51034836 -78.11163836 196.16089447 -78.7842322 196.83115411 C-80.9899942 199.03054232 -83.19212139 201.23353483 -85.39428711 203.43652344 C-86.96732286 205.00656976 -88.54056473 206.5764096 -90.11399841 208.14605713 C-94.40152613 212.42471754 -98.6857712 216.70665063 -102.96918559 220.98942852 C-106.53957597 224.5588719 -110.11132967 228.12694961 -113.68302065 231.69509149 C-121.62586516 239.63024714 -129.56635229 247.56775544 -137.5050165 255.50709268 C-138.22025916 256.22239528 -138.22025916 256.22239528 -138.94995117 256.95214844 C-139.66606353 257.66832212 -139.66606353 257.66832212 -140.39664281 258.39896396 C-148.1315853 266.13431278 -155.87150112 273.86466391 -163.6136952 281.5927541 C-171.55698144 289.52168389 -179.49644913 297.45442071 -187.43222052 305.39087319 C-191.89008097 309.84898911 -196.34949416 314.30552475 -200.81275749 318.75823212 C-205.01054367 322.9463619 -209.20353499 327.13923256 -213.39284706 331.33583832 C-214.93347433 332.87751458 -216.47582002 334.41747573 -218.01998138 335.95561218 C-220.1236313 338.05158345 -222.22105955 340.15358806 -224.31700134 342.25726318 C-224.93304527 342.86816355 -225.54908919 343.47906391 -226.18380111 344.1084764 C-226.7445098 344.67378389 -227.3052185 345.23909137 -227.88291836 345.82152939 C-228.61002912 346.5483141 -228.61002912 346.5483141 -229.35182899 347.28978133 C-233.13447459 351.81384372 -233.04533379 356.20320832 -232.94140625 361.8984375 C-232.377728 367.08984455 -229.89041175 369.64442761 -226.1875 373.0625 C-221.31999529 376.38664956 -217.55270814 377.41531778 -211.625 376.8125 C-205.50758935 374.56994201 -201.16754166 370.92476216 -196.66467285 366.33319092 C-196.01263618 365.68457195 -195.36059951 365.03595297 -194.68880415 364.36767888 C-192.52056248 362.2059916 -190.36686882 360.03038521 -188.21289062 357.85449219 C-186.65593974 356.2964123 -185.09810612 354.73921408 -183.53945923 353.18283081 C-179.32032095 348.96483854 -175.11361566 344.73464148 -170.9090519 340.50212765 C-166.50932442 336.07736813 -162.09824073 331.66395939 -157.68835449 327.24932861 C-150.29130453 319.84126519 -142.90127294 312.42626134 -135.51660156 305.00585938 C-127.91258454 297.36508896 -120.3043499 289.72855888 -112.69042969 282.09765625 C-112.22058617 281.62676184 -111.75074266 281.15586744 -111.26666147 280.6707035 C-108.90941228 278.30823392 -106.55207569 275.94585159 -104.19470692 273.58350134 C-84.65878926 254.00579145 -65.13719297 234.41385326 -45.625 214.8125 C-47.39674189 211.01324 -49.61371807 208.57976311 -52.59765625 205.609375 C-53.08076767 205.1267218 -53.56387909 204.6440686 -54.06163025 204.14678955 C-55.07884054 203.13258976 -56.09846961 202.12081081 -57.12036133 201.11132812 C-58.69089755 199.55914214 -60.25319038 197.99900796 -61.81445312 196.4375 C-68.00255691 188.6849697 -68.00255691 188.6849697 -74.93245548 192.98154998 Z " fill="#000000" transform="translate(297.625,57.1875)"/>
</svg>
